<?xml version="1.0" encoding="UTF-8" standalone="no"?>
<!-- Created with Inkscape (http://www.inkscape.org/) -->

<svg
   xmlns:dc="http://purl.org/dc/elements/1.1/"
   xmlns:cc="http://creativecommons.org/ns#"
   xmlns:rdf="http://www.w3.org/1999/02/22-rdf-syntax-ns#"
   xmlns:svg="http://www.w3.org/2000/svg"
   xmlns="http://www.w3.org/2000/svg"
   xmlns:sodipodi="http://sodipodi.sourceforge.net/DTD/sodipodi-0.dtd"
   xmlns:inkscape="http://www.inkscape.org/namespaces/inkscape"
   width="63.999996"
   height="64"
   viewBox="0 0 16.933332 16.933334"
   version="1.1"
   id="svg8"
   inkscape:version="0.92.4 5da689c313, 2019-01-14"
   sodipodi:docname="omawiki-logo2.svg">
  <defs
     id="defs2" />
  <sodipodi:namedview
     id="base"
     pagecolor="#ffffff"
     bordercolor="#666666"
     borderopacity="1.0"
     inkscape:pageopacity="0.0"
     inkscape:pageshadow="2"
     inkscape:zoom="3.9438599"
     inkscape:cx="59.776381"
     inkscape:cy="60.007672"
     inkscape:document-units="px"
     inkscape:current-layer="layer1"
     showgrid="false"
     units="px"
     fit-margin-top="0"
     fit-margin-left="0"
     fit-margin-right="0"
     fit-margin-bottom="0" />
  <metadata
     id="metadata5">
    <rdf:RDF>
      <cc:Work
         rdf:about="">
        <dc:format>image/svg+xml</dc:format>
        <dc:type
           rdf:resource="http://purl.org/dc/dcmitype/StillImage" />
        <dc:title></dc:title>
        <dc:creator>
          <cc:Agent>
            <dc:title>ruru</dc:title>
          </cc:Agent>
        </dc:creator>
      </cc:Work>
    </rdf:RDF>
  </metadata>
  <g
     inkscape:label="Livello 1"
     inkscape:groupmode="layer"
     id="layer1"
     transform="translate(-56.682678,-179.43553)">
    <g
       id="g12">
      <rect
         y="179.43553"
         x="56.682678"
         height="16.933334"
         width="16.933334"
         id="rect8"
         style="opacity:1;fill:none;fill-opacity:0.94117647;fill-rule:nonzero;stroke:none;stroke-width:0.03580443;stroke-linecap:round;stroke-linejoin:round;stroke-miterlimit:4;stroke-dasharray:none;stroke-opacity:1;paint-order:stroke markers fill" />
      <path
         inkscape:connector-curvature="0"
         d="m 63.080566,181.53192 c -3.518186,0 -6.370906,2.85272 -6.370906,6.3709 0,3.51819 2.85272,6.3697 6.370906,6.3697 2.699972,0 5.006926,-1.67999 5.934262,-4.05144 -0.911817,1.09479 -2.284189,1.79158 -3.820353,1.79158 -2.745317,0 -4.970965,-2.22443 -4.970965,-4.96975 0,-2.74531 2.225648,-4.97096 4.970965,-4.97096 0.173242,0 0.344598,0.009 0.513269,0.0255 -0.801091,-0.36317 -1.690345,-0.56557 -2.627178,-0.56557 z m 2.18234,1.3563 c -2.284359,0 -4.145365,1.86099 -4.145365,4.14536 0,2.28435 1.861005,4.14675 4.145365,4.14675 2.284358,0 4.146755,-1.8624 4.146754,-4.14675 0,-2.28437 -1.862396,-4.14536 -4.146754,-4.14536 z m 0,0.9351 c 1.778988,0 3.211648,1.43127 3.211648,3.21026 0,1.77899 -1.43266,3.21164 -3.211648,3.21164 -1.77899,0 -3.210258,-1.43265 -3.210258,-3.21164 0,-1.77899 1.431268,-3.21026 3.210258,-3.21026 z"
         style="fill:#ffffff;fill-opacity:1;stroke:none;stroke-width:0.08796934"
         id="path4156" />
    </g>
  </g>
</svg>
