<?xml version="1.0" encoding="UTF-8" standalone="no"?>
<!-- Created with Inkscape (http://www.inkscape.org/) -->

<svg
   xmlns:dc="http://purl.org/dc/elements/1.1/"
   xmlns:cc="http://creativecommons.org/ns#"
   xmlns:rdf="http://www.w3.org/1999/02/22-rdf-syntax-ns#"
   xmlns:svg="http://www.w3.org/2000/svg"
   xmlns="http://www.w3.org/2000/svg"
   xmlns:sodipodi="http://sodipodi.sourceforge.net/DTD/sodipodi-0.dtd"
   xmlns:inkscape="http://www.inkscape.org/namespaces/inkscape"
   width="460"
   height="50"
   viewBox="0 0 121.70834 13.229167"
   version="1.1"
   id="svg8"
   inkscape:version="0.92.4 5da689c313, 2019-01-14"
   sodipodi:docname="openmandriva-wiki.svg">
  <defs
     id="defs2" />
  <sodipodi:namedview
     id="base"
     pagecolor="#d5e5ff"
     bordercolor="#666666"
     borderopacity="1.0"
     inkscape:pageopacity="0"
     inkscape:pageshadow="2"
     inkscape:zoom="1.8415522"
     inkscape:cx="243.53784"
     inkscape:cy="59.846965"
     inkscape:document-units="px"
     inkscape:current-layer="layer1"
     showgrid="true"
     units="px"
     fit-margin-top="0"
     fit-margin-left="0"
     fit-margin-right="0"
     fit-margin-bottom="0">
    <inkscape:grid
       type="xygrid"
       id="grid1947"
       originx="3.0353499e-07"
       originy="0" />
  </sodipodi:namedview>
  <metadata
     id="metadata5">
    <rdf:RDF>
      <cc:Work
         rdf:about="">
        <dc:format>image/svg+xml</dc:format>
        <dc:type
           rdf:resource="http://purl.org/dc/dcmitype/StillImage" />
        <dc:title></dc:title>
        <dc:creator>
          <cc:Agent>
            <dc:title>ruru</dc:title>
          </cc:Agent>
        </dc:creator>
      </cc:Work>
    </rdf:RDF>
  </metadata>
  <g
     inkscape:label="Livello 1"
     inkscape:groupmode="layer"
     id="layer1"
     transform="translate(3.0353498e-7,-283.77083)">
    <g
       aria-label="PENMANDRIVA "
       style="font-style:normal;font-variant:normal;font-weight:normal;font-stretch:normal;font-size:3.17499995px;line-height:0%;font-family:'Good Times Rg';-inkscape-font-specification:'Good Times Rg';letter-spacing:0px;word-spacing:0px;fill:#ffffff;fill-opacity:1;stroke:none;stroke-width:0.26458332"
       id="text376" />
    <g
       aria-label="iki"
       style="font-style:normal;font-variant:normal;font-weight:normal;font-stretch:normal;font-size:3.17499995px;line-height:0%;font-family:'Good Times Rg';-inkscape-font-specification:'Good Times Rg';letter-spacing:0px;word-spacing:0px;fill:#ffffff;fill-opacity:1;stroke:none;stroke-width:0.26458332"
       id="text1914" />
    <path
       inkscape:connector-curvature="0"
       d="m 103.63541,290.84563 -1.25999,2.37018 q -0.12266,0.22255 -0.31222,0.33383 -0.18955,0.11127 -0.41257,0.11127 -0.49062,0 -0.73593,-0.4451 l -4.19257,-7.75592 H 98.417 l 3.27823,6.22031 1.22656,-2.20326 -2.10744,-4.01705 h 1.70603 l 3.13327,6.22031 3.30055,-6.22031 h 1.58336 l -4.19258,7.75592 q -0.12265,0.22255 -0.32337,0.33383 -0.18954,0.11127 -0.41256,0.11127 -0.22301,0 -0.41257,-0.11127 -0.18956,-0.11128 -0.31221,-0.33383 z m 16.99967,2.81527 v -6.13118 h 1.07325 v 6.13118 z m -2.3916,0 -3.43951,-2.69873 q -0.14367,-0.10963 -0.18592,-0.21084 -0.0338,-0.10963 -0.0338,-0.23614 0,-0.14337 0.0507,-0.253 0.0507,-0.10964 0.21972,-0.23614 l 3.25359,-2.49633 h 1.64793 l -4.02262,2.99391 4.14938,3.13727 z m -5.06208,0 v -6.13118 h 1.07326 v 6.13118 z m -2.20212,0 v -6.13118 h 1.07326 v 6.13118 z m -17.665037,-0.11126 -0.921152,-1.54334 h -2.907099 l 0.507051,-0.86865 h 1.88455 l -1.369041,-2.29393 -2.788796,4.70592 h -1.225377 l 3.532474,-5.86974 q 0.09299,-0.16024 0.219721,-0.25301 0.12676,-0.0928 0.304224,-0.0928 0.177475,0 0.295788,0.0928 0.12676,0.0928 0.219721,0.25301 l 3.54092,5.86974 z M 80.49,287.41846 h 1.30989 l 2.788787,4.72278 2.780338,-4.72278 h 1.233834 l -3.540921,5.86974 q -0.09299,0.16023 -0.219721,0.253 -0.12676,0.0928 -0.295787,0.0928 -0.177465,0 -0.304225,-0.0928 -0.12677,-0.0928 -0.219721,-0.253 z m -1.788023,6.13118 v -6.13118 h 1.073262 v 6.13118 z m -2.145469,0 -1.554961,-1.70358 h -2.298641 v -0.94455 h 2.560617 q 0.583112,0 0.878892,-0.31204 0.295781,-0.32048 0.295781,-0.91926 0,-0.59878 -0.312683,-0.88552 -0.304231,-0.29517 -0.86199,-0.29517 h -3.34655 v 5.06012 h -1.064811 v -6.13118 h 4.411361 q 0.523955,0 0.938048,0.16023 0.414094,0.15181 0.701424,0.44698 0.28733,0.28674 0.439446,0.69998 0.152115,0.41325 0.152115,0.92769 0,0.76745 -0.338035,1.29033 -0.329584,0.51445 -0.929596,0.74215 l 1.850743,1.86382 z m -13.131881,0 v -6.13118 h 3.557821 q 0.650718,0 1.200026,0.21927 0.549308,0.21927 0.9465,0.61565 0.397191,0.39637 0.616913,0.95299 0.228175,0.54818 0.228175,1.21442 0,0.66625 -0.228175,1.23973 -0.219722,0.57348 -0.616913,0.99516 -0.397192,0.41324 -0.9465,0.65782 -0.549308,0.23614 -1.200026,0.23614 z m 3.557821,-1.07106 q 0.414093,0 0.76058,-0.15181 0.354938,-0.1518 0.608464,-0.41324 0.261977,-0.26987 0.405642,-0.64095 0.143665,-0.37107 0.143665,-0.80118 0,-0.43011 -0.143665,-0.79276 -0.143665,-0.37107 -0.405642,-0.63251 -0.253526,-0.26144 -0.608464,-0.40481 -0.346487,-0.1518 -0.76058,-0.1518 h -2.49301 v 3.98906 z M 57.043812,289.063 v 4.48664 h -1.022556 v -5.56614 q 0,-0.29517 0.143665,-0.46384 0.152115,-0.1771 0.405642,-0.1771 0.118313,0 0.228174,0.0506 0.109862,0.0506 0.228174,0.16867 l 4.335303,4.29267 v -4.48664 h 1.022557 v 5.61673 q 0,0.30361 -0.152116,0.47228 -0.143665,0.16867 -0.380289,0.16867 -0.261978,0 -0.490152,-0.22771 z m -2.943284,4.48664 -0.921146,-1.54334 h -2.907104 l 0.507053,-0.86865 h 1.884546 l -1.369043,-2.29393 -2.788791,4.70592 h -1.225378 l 3.532469,-5.86974 q 0.09296,-0.16024 0.219723,-0.25301 0.126763,-0.0928 0.304232,-0.0928 0.177468,0 0.295781,0.0928 0.126763,0.0928 0.219722,0.25301 l 3.540921,5.86974 z m -8.78531,0 -1.549915,-5.6862 -2.296997,5.26335 q -0.122655,0.25593 -0.301064,0.40059 -0.167256,0.13353 -0.423718,0.13353 -0.501771,0 -0.72478,-0.53412 l -2.285846,-5.26335 -1.549917,5.6862 h -1.393809 l 2.085139,-7.61127 q 0.144956,-0.57863 0.70248,-0.57863 0.223009,0 0.412567,0.1224 0.200708,0.12241 0.301062,0.35608 l 2.497707,5.71958 2.497705,-5.71958 q 0.200709,-0.47848 0.680179,-0.47848 0.512922,0 0.680179,0.57863 l 2.073988,7.61127 z M 28.673154,289.063 v 4.48664 h -1.022558 v -5.56614 q 0,-0.29517 0.143665,-0.46384 0.152116,-0.1771 0.405643,-0.1771 0.118312,0 0.228173,0.0506 0.109862,0.0506 0.228174,0.16867 l 4.335303,4.29267 v -4.48664 h 1.022558 v 5.61673 q 0,0.30361 -0.152116,0.47228 -0.143665,0.16867 -0.38029,0.16867 -0.261977,0 -0.490152,-0.22771 z m -7.417896,4.48664 v -6.13118 h 5.484623 v 1.07106 h -4.419812 v 3.98906 h 4.428263 v 1.07106 z m 1.850744,-2.665 v -0.90239 h 3.405706 v 0.90239 z m -7.328501,0.96142 v -1.03732 h 2.467658 q 0.56621,0 0.878892,-0.32048 0.321133,-0.32047 0.321133,-0.84335 0,-0.53131 -0.321133,-0.84335 -0.312682,-0.31204 -0.878892,-0.31204 h -3.25359 v 5.06012 h -1.064812 v -6.13118 h 4.318402 q 0.532405,0 0.946498,0.16023 0.422545,0.15181 0.709875,0.43855 0.28733,0.2783 0.439446,0.68311 0.152116,0.40481 0.152116,0.91083 0,0.49757 -0.152116,0.91082 -0.152116,0.40481 -0.439446,0.69998 -0.28733,0.29517 -0.709875,0.46384 -0.414093,0.16024 -0.946498,0.16024 z m -9.1486755,-8.07522 c -3.6606133,0 -6.628820803535,2.96211 -6.628820803535,6.61521 C 4.696465e-6,294.03915 2.9682122,297 6.6288255,297 c 2.8092772,0 5.2096255,-1.74442 6.1745015,-4.20681 -0.948731,1.13679 -2.376661,1.8603 -3.9750134,1.8603 -2.856457,0 -5.1722069,-2.30974 -5.1722069,-5.16033 0,-2.85059 2.3157499,-5.16158 5.1722069,-5.16158 0.1802552,0 0.3585472,0.009 0.5340466,0.0265 -0.8335215,-0.37711 -1.7587763,-0.58726 -2.7335347,-0.58726 z m 2.271015,1.40755 c -2.3768373,0 -4.3135449,1.93468 -4.3135449,4.30664 0,2.37196 1.9367076,4.30469 4.3135449,4.30469 2.3768365,0 4.3135435,-1.93273 4.3135435,-4.30469 0,-2.37196 -1.936707,-4.30664 -4.3135435,-4.30664 z m 0,0.9707 c 1.8510085,0 3.3408435,1.48873 3.3408435,3.33594 0,1.84721 -1.489835,3.33398 -3.3408435,3.33398 -1.8510086,0 -3.3408447,-1.48677 -3.3408447,-3.33398 0,-1.84721 1.4898361,-3.33594 3.3408447,-3.33594 z"
       style="font-style:normal;font-variant:normal;font-weight:normal;font-stretch:normal;font-size:11.12757683px;line-height:0%;font-family:'Good Times Rg';-inkscape-font-specification:'Good Times Rg';letter-spacing:0px;word-spacing:0px;fill:#2080bb;fill-opacity:1;stroke:none;stroke-width:0.26485536"
       id="path2076" />
  </g>
</svg>
