<?xml version="1.0" encoding="UTF-8" standalone="no"?>
<!-- Created with Inkscape (http://www.inkscape.org/) -->

<svg
   xmlns:dc="http://purl.org/dc/elements/1.1/"
   xmlns:cc="http://creativecommons.org/ns#"
   xmlns:rdf="http://www.w3.org/1999/02/22-rdf-syntax-ns#"
   xmlns:svg="http://www.w3.org/2000/svg"
   xmlns="http://www.w3.org/2000/svg"
   xmlns:sodipodi="http://sodipodi.sourceforge.net/DTD/sodipodi-0.dtd"
   xmlns:inkscape="http://www.inkscape.org/namespaces/inkscape"
   width="1000"
   height="140.18687"
   viewBox="0 0 264.58333 37.091112"
   version="1.1"
   id="svg8"
   inkscape:version="0.92.4 5da689c313, 2019-01-14"
   sodipodi:docname="openmandriva-bk.svg">
  <defs
     id="defs2" />
  <sodipodi:namedview
     id="base"
     pagecolor="#ffffff"
     bordercolor="#666666"
     borderopacity="1.0"
     inkscape:pageopacity="0.0"
     inkscape:pageshadow="2"
     inkscape:zoom="0.98994949"
     inkscape:cx="421.50907"
     inkscape:cy="95.063619"
     inkscape:document-units="px"
     inkscape:current-layer="layer1"
     showgrid="false"
     units="px"
     fit-margin-top="0"
     fit-margin-left="0"
     fit-margin-right="0"
     fit-margin-bottom="0" />
  <metadata
     id="metadata5">
    <rdf:RDF>
      <cc:Work
         rdf:about="">
        <dc:format>image/svg+xml</dc:format>
        <dc:type
           rdf:resource="http://purl.org/dc/dcmitype/StillImage" />
        <dc:title></dc:title>
        <dc:creator>
          <cc:Agent>
            <dc:title>ruru</dc:title>
          </cc:Agent>
        </dc:creator>
      </cc:Work>
    </rdf:RDF>
  </metadata>
  <g
     inkscape:label="Livello 1"
     inkscape:groupmode="layer"
     id="layer1"
     transform="translate(59.34226,-107.23122)">
    <path
       inkscape:connector-curvature="0"
       style="font-style:normal;font-variant:normal;font-weight:normal;font-stretch:normal;font-size:medium;line-height:125%;font-family:'Good Times Rg';-inkscape-font-specification:'Good Times Rg';letter-spacing:0px;word-spacing:0px;fill:#000000;fill-opacity:1;stroke:none;stroke-width:0.38105521"
       d="m -40.80376,107.23122 c -10.23745,0 -18.5385,8.3052 -18.5385,18.54741 0,10.24223 8.30105,18.5437 18.5385,18.5437 7.85654,0 14.569641,-4.89101 17.268039,-11.79485 -2.653268,3.18721 -6.64682,5.21569 -11.116839,5.21569 -7.98848,0 -14.46446,-6.47596 -14.46446,-14.46818 0,-7.99222 6.47598,-14.47118 14.46446,-14.47118 0.50413,0 1.00292,0.0241 1.49371,0.0745 -2.33105,-1.05731 -4.91887,-1.64702 -7.64491,-1.64702 z m 6.34619,3.94973 c -6.66603,0 -12.06277,5.40865 -12.06277,12.07468 0,6.66604 5.39674,12.06279 12.06277,12.06279 6.66605,0 12.074699,-5.39675 12.074699,-12.06279 0,-6.66603 -5.408649,-12.07468 -12.074699,-12.07468 z m 80.20394,0.50534 c -1.03921,3e-5 -1.6938,0.5409 -1.96407,1.62247 l -5.831921,21.33983 h 3.898371 l 4.3345,-15.94255 6.3931,14.75696 c 0.41554,0.99844 1.09152,1.49742 2.02734,1.49742 0.4777,0 0.8774,-0.12976 1.19972,-0.38998 0.32228,-0.26024 0.5977,-0.62948 0.82612,-1.10744 l 6.42508,-14.75696 4.33377,15.94255 h 3.92889 l -5.79993,-21.33983 c -0.31154,-1.08157 -0.94559,-1.62244 -1.9023,-1.62247 -0.89395,3e-5 -1.5279,0.44756 -1.90156,1.34189 l -6.98552,16.03632 -6.98477,-16.03632 c -0.18717,-0.43669 -0.46301,-0.76995 -0.82685,-0.99879 -0.36387,-0.2288 -0.75378,-0.34307 -1.16997,-0.3431 z m -80.20394,2.17395 c 5.186119,0 9.395399,4.20927 9.395399,9.39539 0,5.18612 -4.20928,9.38348 -9.395399,9.38348 -5.18611,0 -9.38348,-4.19736 -9.38348,-9.38348 0,-5.18612 4.19737,-9.39539 9.38348,-9.39539 z m 118.68682,3.36177 c -0.33084,1e-5 -0.61437,0.0863 -0.85069,0.25974 -0.23634,0.17344 -0.44091,0.41007 -0.61401,0.70927 l -9.87915,16.45757 h 3.42653 l 7.79972,-13.19477 3.82841,6.43178 h -5.27001 l -1.4178,2.43518 h 8.12941 l 2.57659,4.32781 h 3.61556 l -9.90296,-16.45757 c -0.17311,-0.2992 -0.37372,-0.53583 -0.60211,-0.70927 -0.2284,-0.1734 -0.50822,-0.25973 -0.83949,-0.25974 z m 109.66724,0 c -0.33083,1e-5 -0.6151,0.0863 -0.85142,0.25974 -0.23636,0.17344 -0.44092,0.41007 -0.61401,0.70927 l -9.87915,16.45757 h 3.42726 l 7.79973,-13.19477 3.8284,6.43178 h -5.27076 l -1.4178,2.43518 h 8.13018 l 2.57584,4.32781 h 3.61631 l -9.90297,-16.45757 c -0.17312,-0.2992 -0.37371,-0.53583 -0.6021,-0.70927 -0.22842,-0.1734 -0.50823,-0.25973 -0.83951,-0.25974 z m -174.37371,0.0238 c -0.47266,10e-6 -0.846572,0.16149 -1.122331,0.4845 -0.275749,0.32305 -0.413801,0.76035 -0.413801,1.31211 v 15.60615 h 2.860162 v -12.58003 l 12.07616,12.15432 c 0.425524,0.42574 0.883108,0.63856 1.371656,0.63856 0.441394,2e-5 0.799907,-0.15799 1.075447,-0.47334 0.275497,-0.31533 0.413022,-0.75684 0.413051,-1.32401 v -15.7476 H 32.92297 v 12.57929 L 20.799159,117.86052 c -0.220221,-0.2208 -0.43298,-0.3788 -0.63781,-0.47335 -0.204851,-0.0945 -0.41787,-0.14143 -0.638569,-0.14143 z m 79.34285,0 c -0.47267,10e-6 -0.84657,0.16149 -1.12233,0.4845 -0.27576,0.32305 -0.4138,0.76035 -0.4138,1.31211 v 15.60615 h 2.86015 v -12.58003 l 12.07617,12.15432 c 0.42552,0.42574 0.8831,0.63856 1.37165,0.63856 0.4414,2e-5 0.79916,-0.15799 1.0747,-0.47334 0.2755,-0.31533 0.41377,-0.75684 0.4138,-1.32401 v -15.7476 h -2.86015 v 12.57929 l -12.12381,-12.03524 c -0.22022,-0.2208 -0.43298,-0.3788 -0.63783,-0.47335 -0.20482,-0.0945 -0.41786,-0.14143 -0.63855,-0.14143 z m -119.259882,0.21284 v 17.18992 h 2.978502 v -14.18761 h 9.09918 c 1.055409,2e-5 1.878449,0.29196 2.469409,0.87524 0.590931,0.5833 0.886391,1.37084 0.88641,2.36373 -1.9e-5,0.97753 -0.295479,1.76632 -0.88641,2.36523 -0.59096,0.59892 -1.414,0.89831 -2.469409,0.8983 h -6.90067 v 2.90853 h 6.90067 c 0.992431,0 1.87852,-0.1533 2.658448,-0.46069 0.779902,-0.3074 1.438082,-0.73726 1.973752,-1.28905 0.535628,-0.55177 0.945039,-1.21006 1.228739,-1.97448 0.283681,-0.76441 0.425701,-1.61197 0.425712,-2.54236 -1.1e-5,-0.94575 -0.142002,-1.79628 -0.425712,-2.55277 -0.2837,-0.75645 -0.693111,-1.39938 -1.228739,-1.9276 -0.53567,-0.5282 -1.19385,-0.93795 -1.973752,-1.22949 -0.779928,-0.29152 -1.666017,-0.43686 -2.658448,-0.43689 z m 20.49511999,0 v 17.18992 H 15.463648 v -3.00379 H 3.079349 V 120.46096 H 15.43983 v -3.0023 z m 117.93288201,0 v 17.18992 h 9.95059 c 1.21315,0 2.33163,-0.22497 3.35583,-0.67429 1.02416,-0.44932 1.90678,-1.06397 2.64729,-1.84424 0.74046,-0.78028 1.31945,-1.70648 1.73707,-2.77828 0.41759,-1.0718 0.62665,-2.23016 0.62666,-3.47564 -1e-5,-1.24547 -0.20907,-2.38448 -0.62666,-3.41686 -0.41762,-1.03234 -0.99661,-1.91909 -1.73707,-2.65993 -0.74051,-0.74087 -1.62313,-1.31607 -2.64729,-1.72596 -1.0242,-0.40985 -2.14268,-0.61472 -3.35583,-0.61475 z m 20.77198,0 v 17.18992 h 2.97848 v -14.18761 h 9.35892 c 1.04003,2e-5 1.84743,0.27187 2.42253,0.81569 0.57506,0.54387 0.86257,1.37531 0.86258,2.49473 -10e-6,1.11896 -0.27535,1.97421 -0.82686,2.56542 -0.55153,0.59123 -1.3711,0.88715 -2.45825,0.88715 h -7.16042 v 2.64804 h 6.42734 l 4.34939,4.77658 h 4.25411 l -5.1755,-5.22611 c 1.11842,-0.42525 1.98836,-1.1225 2.61082,-2.09209 0.62243,-0.96957 0.93402,-2.17208 0.93403,-3.60662 -1e-5,-0.96162 -0.142,-1.82805 -0.4257,-2.60041 -0.28371,-0.77232 -0.69312,-1.43063 -1.22875,-1.97448 -0.53567,-0.54382 -1.18989,-0.96177 -1.96185,-1.25331 -0.772,-0.29152 -1.64642,-0.43686 -2.62347,-0.43689 z m 21.95383,0 v 17.18992 h 3.00155 v -17.18991 z m 5.00061,0 9.87915,16.45684 c 0.1731,0.29971 0.37767,0.53584 0.61401,0.70926 0.23632,0.17343 0.51984,0.26049 0.85067,0.26049 0.31542,0 0.59126,-0.0871 0.82762,-0.26049 0.23631,-0.17342 0.44087,-0.40955 0.61399,-0.70926 l 9.90297,-16.45683 h -3.45034 l -7.7759,13.24093 -7.79897,-13.24093 z m -44.74794,3.00231 h 6.97211 c 0.77174,1e-5 1.48428,0.13797 2.13824,0.4138 0.65392,0.2759 1.22148,0.65814 1.70209,1.14689 0.48059,0.48877 0.85448,1.0759 1.12233,1.76164 0.2678,0.68575 0.40187,1.43113 0.40189,2.23497 -2e-5,0.80387 -0.13409,1.55196 -0.40189,2.2454 -0.26785,0.69345 -0.64174,1.28876 -1.12233,1.78546 -0.48061,0.4967 -1.04817,0.88711 -1.70209,1.17069 -0.65396,0.28359 -1.3665,0.42497 -2.13824,0.42497 h -6.97211 z M 5.277859,124.64657 v 2.52971 h 9.524161 v -2.52971 z"
       id="path1391" />
  </g>
</svg>
