<?xml version="1.0" encoding="UTF-8" standalone="no"?>
<!-- Created with Inkscape (http://www.inkscape.org/) -->

<svg
   xmlns:dc="http://purl.org/dc/elements/1.1/"
   xmlns:cc="http://creativecommons.org/ns#"
   xmlns:rdf="http://www.w3.org/1999/02/22-rdf-syntax-ns#"
   xmlns:svg="http://www.w3.org/2000/svg"
   xmlns="http://www.w3.org/2000/svg"
   xmlns:sodipodi="http://sodipodi.sourceforge.net/DTD/sodipodi-0.dtd"
   xmlns:inkscape="http://www.inkscape.org/namespaces/inkscape"
   width="240"
   height="240"
   viewBox="0 0 63.499999 63.500002"
   version="1.1"
   id="svg8"
   inkscape:version="0.92.4 5da689c313, 2019-01-14"
   sodipodi:docname="chwido-icon.svg">
  <defs
     id="defs2" />
  <sodipodi:namedview
     id="base"
     pagecolor="#ffffff"
     bordercolor="#666666"
     borderopacity="1.0"
     inkscape:pageopacity="0.0"
     inkscape:pageshadow="2"
     inkscape:zoom="0.49497475"
     inkscape:cx="-157.66929"
     inkscape:cy="77.934867"
     inkscape:document-units="px"
     inkscape:current-layer="layer1"
     showgrid="false"
     units="px"
     fit-margin-top="0"
     fit-margin-left="0"
     fit-margin-right="0"
     fit-margin-bottom="0" />
  <metadata
     id="metadata5">
    <rdf:RDF>
      <cc:Work
         rdf:about="">
        <dc:format>image/svg+xml</dc:format>
        <dc:type
           rdf:resource="http://purl.org/dc/dcmitype/StillImage" />
        <dc:title></dc:title>
        <dc:creator>
          <cc:Agent>
            <dc:title>ruru</dc:title>
          </cc:Agent>
        </dc:creator>
      </cc:Work>
    </rdf:RDF>
  </metadata>
  <g
     inkscape:label="Livello 1"
     inkscape:groupmode="layer"
     id="layer1"
     transform="translate(-63.500001,-111.79166)">
    <g
       id="g3839"
       transform="matrix(0.26458333,0,0,0.26458333,63.500001,111.79166)">
      <g
         id="g5094">
        <path
           id="path14"
           style="fill:none;stroke:none"
           d="M 0,240 H 240 V 0 H 0 Z"
           inkscape:connector-curvature="0" />
        <circle
           style="fill:#e5e5e5;fill-opacity:1;stroke:none"
           id="path4133"
           cx="120"
           cy="120"
           r="119" />
      </g>
      <path
         inkscape:connector-curvature="0"
         id="path3064"
         d="m 180.33955,40.001932 c -3.23694,-0.149193 -7.28686,8.381673 -8.56596,11.199084 -1.43313,7.332332 -8.94382,8.397445 -10.09918,0.333306 -7.19916,-10.772319 -5.72951,4.044203 -6.9661,9.032595 -3.11365,6.932366 -3.93307,14.703597 -8.79928,20.898291 -2.55343,7.516318 -8.82106,11.028698 -16.56531,10.832447 C 114.9552,93.603148 100.6529,89.99251 86.247251,90.064505 75.75644,88.603157 66.436936,94.672928 56.183043,95.230749 46.547032,96.204536 45.699634,84.49496 48.483673,77.932163 c -0.09915,-1.83465 -4.465576,9.071525 -2.699779,12.798954 -0.744334,9.176178 15.954002,6.616654 10.665794,15.898703 -4.772377,8.45104 -0.838832,18.00907 -1.13324,26.99779 0.343502,9.25992 -2.746016,18.3993 -9.032595,25.2646 -2.044227,8.13921 -0.729892,17.10781 -2.299812,25.49792 -3.536777,5.96557 6.54707,12.88988 8.299321,5.99951 -4.760112,-9.26738 -3.146324,-20.79763 1.966506,-29.59758 3.181799,0.87047 2.593335,10.95697 4.499632,15.1321 -0.951847,8.13252 8.861718,10.9671 12.898945,4.66628 -7.972734,-2.04437 -11.499059,-9.86332 -10.199166,-17.79854 1.312298,-7.92429 8.934096,-12.63751 13.69888,-18.53182 6.375073,-5.00733 7.938498,-12.86402 10.699125,-19.9317 5.436451,-5.66381 14.328346,1.76558 20.065026,4.26631 6.78203,4.61803 14.36441,7.7595 21.73155,11.23242 0.63097,12.72735 2.43773,25.41938 2.13316,38.19687 2.86527,6.70945 0.2043,16.75223 5.86619,21.59824 2.74642,0.7054 11.15507,0.94778 7.43272,-4.16633 -7.60921,-5.07839 -5.42827,-15.66471 -5.73286,-23.56474 0.95961,-11.19535 0.15045,-23.28783 5.6662,-33.4306 1.44669,5.85858 0.94382,13.108 1.56654,19.49841 1.16067,6.42894 -1.21105,13.90806 2.4998,18.83179 2.56536,6.24376 1.29184,18.38703 11.66571,14.49882 8.17626,-1.30496 0.8085,-5.55608 -3.43305,-6.13284 -4.03887,-7.95147 -3.39973,-17.39056 -3.39973,-26.09786 1.16035,-10.44555 0.32829,-21.41999 4.8996,-31.16412 3.50868,-6.27522 1.42005,-13.93767 5.26624,-20.06503 3.79581,-5.13039 2.24007,-17.035142 10.43248,-16.831958 7.46468,-1.178304 17.30227,2.409136 22.46483,-4.699616 5.33051,-6.579195 -2.8562,-3.272666 -3.6997,-7.332734 -2.75077,-1.557606 -6.2156,-2.416201 -4.96626,-6.299485 1.08657,-3.958476 -3.13646,-5.858454 -5.03292,-8.665958 -7.14008,-6.149897 3.52097,-14.439352 1.13324,-22.331507 -0.61327,-1.133957 -1.31951,-1.632101 -2.0665,-1.66653 z"
         style="display:inline;fill:#000000;fill-opacity:1" />
    </g>
  </g>
</svg>
