<?xml version="1.0" encoding="UTF-8" standalone="no"?>
<svg
   xmlns:dc="http://purl.org/dc/elements/1.1/"
   xmlns:cc="http://creativecommons.org/ns#"
   xmlns:rdf="http://www.w3.org/1999/02/22-rdf-syntax-ns#"
   xmlns:svg="http://www.w3.org/2000/svg"
   xmlns="http://www.w3.org/2000/svg"
   xmlns:sodipodi="http://sodipodi.sourceforge.net/DTD/sodipodi-0.dtd"
   xmlns:inkscape="http://www.inkscape.org/namespaces/inkscape"
   width="498"
   height="50"
   viewBox="0 0 131.76249 13.229167"
   version="1.1"
   id="svg8"
   inkscape:version="1.0 (4035a4fb49, 2020-05-01)"
   sodipodi:docname="header-tr-omlx42.svg">
  <defs
     id="defs2" />
  <sodipodi:namedview
     id="base"
     pagecolor="#e1f3fa"
     bordercolor="#666666"
     borderopacity="1.0"
     inkscape:pageopacity="0"
     inkscape:pageshadow="2"
     inkscape:zoom="1.4"
     inkscape:cx="184.58139"
     inkscape:cy="23.125899"
     inkscape:document-units="px"
     inkscape:current-layer="layer1"
     showgrid="true"
     units="px"
     inkscape:document-rotation="0"
     inkscape:window-width="1559"
     inkscape:window-height="856"
     inkscape:window-x="279"
     inkscape:window-y="17"
     inkscape:window-maximized="0">
    <inkscape:grid
       type="xygrid"
       id="grid9" />
  </sodipodi:namedview>
  <metadata
     id="metadata5">
    <rdf:RDF>
      <cc:Work
         rdf:about="">
        <dc:format>image/svg+xml</dc:format>
        <dc:type
           rdf:resource="http://purl.org/dc/dcmitype/StillImage" />
        <dc:title />
        <dc:creator>
          <cc:Agent>
            <dc:title>ruru</dc:title>
          </cc:Agent>
        </dc:creator>
      </cc:Work>
    </rdf:RDF>
  </metadata>
  <g
     inkscape:label="Livello 1"
     inkscape:groupmode="layer"
     id="layer1"
     transform="translate(0,-283.77083)">
    <g
       style="fill:#2080bb;fill-opacity:1;stroke:none"
       id="g1948"
       transform="matrix(0.22651751,0,0,0.22651751,-15.799068,-372.67377)">
      <g
         style="fill:#2080bb;fill-opacity:1;stroke:none"
         transform="matrix(0.59971948,0,0,0.59999981,60.437593,2133.8865)"
         id="g1938">
        <path
           inkscape:connector-curvature="0"
           id="circle1932"
           transform="matrix(1.6674463,0,0,1.6666672,-1394.6633,-4403.8457)"
           d="m 874.90625,3406.4062 c -16.11956,0 -29.18945,13.078 -29.18945,29.2051 0,16.1272 13.06989,29.1973 29.18945,29.1973 12.37071,0 22.94056,-7.6997 27.18945,-18.5703 -4.17776,5.0185 -10.46554,8.2109 -17.5039,8.2109 -12.57852,0 -22.77539,-10.1969 -22.77539,-22.7812 0,-12.5844 10.19687,-22.7852 22.77539,-22.7852 0.79373,0 1.57876,0.038 2.35156,0.1172 -3.6704,-1.6648 -7.74474,-2.5938 -12.03711,-2.5938 z m 10.00195,6.2168 c -10.46646,0 -18.99804,8.5345 -18.99804,19.0059 0,10.4714 8.53158,19.0059 18.99804,19.0059 10.46646,0 18.9961,-8.5345 18.9961,-19.0059 0,-10.4714 -8.52964,-19.0059 -18.9961,-19.0059 z m 126.2793,0.7989 c -1.6367,0 -2.6682,0.8517 -3.0937,2.5547 l -9.18169,33.5996 h 6.13669 l 6.8262,-25.1016 10.0645,23.2363 c 0.6546,1.572 1.7183,2.3575 3.1914,2.3575 0.7528,0 1.3761,-0.1969 1.8671,-0.5899 0.5238,-0.4257 0.9661,-1.0143 1.3262,-1.7676 l 10.1133,-23.2363 6.8262,25.1016 h 6.1855 l -9.1328,-33.5996 c -0.491,-1.703 -1.4884,-2.5547 -2.9941,-2.5547 -1.4076,0 -2.4069,0.7031 -2.9961,2.1113 l -10.9981,25.25 -10.998,-25.25 c -0.2946,-0.6877 -0.737,-1.212 -1.3262,-1.5723 -0.5565,-0.3602 -1.1617,-0.539 -1.8164,-0.539 z m 265.7344,0.4414 v 35.7129 h 30.2461 v -6.2383 h -24.0098 v -29.4746 z m -392.0137,3.0469 c 8.15097,0 14.71094,6.5639 14.71094,14.7187 0,8.1548 -6.55997,14.7188 -14.71094,14.7188 -8.15096,0 -14.71289,-6.564 -14.71289,-14.7188 0,-8.1548 6.56193,-14.7187 14.71289,-14.7187 z m 186.873,5.2265 c -0.5209,0 -0.9677,0.1371 -1.3398,0.4102 -0.3721,0.273 -0.6958,0.6456 -0.9687,1.1172 l -15.5547,25.9121 h 5.3965 l 12.2793,-20.7735 6.0292,10.125 h -8.2988 l -2.2324,3.836 h 12.8008 l 4.0566,6.8125 h 5.6934 l -15.5918,-25.9121 c -0.2729,-0.4716 -0.5947,-0.8442 -0.9668,-1.1172 -0.3473,-0.2731 -0.7818,-0.4102 -1.3028,-0.4102 z m 172.6778,0 c -0.521,0 -0.9677,0.1371 -1.3399,0.4102 -0.3721,0.273 -0.6939,0.6456 -0.9668,1.1172 l -15.5546,25.9121 h 5.3945 l 12.2812,-20.7735 6.0293,10.125 h -8.2988 l -2.2344,3.836 h 12.8028 l 4.0566,6.8125 h 5.6934 l -15.5938,-25.9121 c -0.2729,-0.4716 -0.5946,-0.8442 -0.9668,-1.1172 -0.3473,-0.2731 -0.7817,-0.4102 -1.3027,-0.4102 z m -274.56252,0.037 c -0.74427,0 -1.34054,0.262 -1.7871,0.7832 -0.42176,0.4964 -0.63282,1.1782 -0.63282,2.0469 v 24.5723 h 4.50391 v -19.8067 l 19.01562,19.1367 c 0.66985,0.6702 1.38912,1.0059 2.15821,1.0059 0.69465,0 1.25207,-0.2477 1.67382,-0.7441 0.44657,-0.4964 0.66993,-1.1924 0.66993,-2.086 v -24.7949 h -4.50196 v 19.8067 l -19.09179,-18.9512 c -0.34733,-0.3475 -0.68139,-0.5952 -1.00391,-0.7442 -0.32252,-0.1489 -0.65658,-0.2246 -1.00391,-0.2246 z m 124.92972,0 c -0.7443,0 -1.3386,0.262 -1.7852,0.7832 -0.4217,0.4964 -0.6328,1.1782 -0.6328,2.0469 v 24.5723 h 4.502 v -19.8067 l 19.0156,19.1367 c 0.6698,0.6702 1.3911,1.0059 2.1601,1.0059 0.6947,0 1.2521,-0.2477 1.6739,-0.7441 0.4465,-0.4964 0.6699,-1.1924 0.6699,-2.086 v -24.7949 h -4.5039 v 19.8067 l -19.0899,-18.9512 c -0.3473,-0.3475 -0.6814,-0.5952 -1.0039,-0.7442 -0.3225,-0.1489 -0.6585,-0.2246 -1.0058,-0.2246 z m -187.78323,0.336 v 27.0664 h 4.68945 v -22.3379 h 14.32813 c 1.66221,0 2.9512,0.4586 3.86914,1.3769 0.94274,0.9184 1.41406,2.159 1.41406,3.7227 0,1.5389 -0.47132,2.7814 -1.41406,3.7246 -0.91794,0.9432 -2.20693,1.4141 -3.86914,1.4141 h -10.86719 v 4.58 h 10.86719 c 1.56297,0 2.95232,-0.2354 4.16797,-0.707 1.24045,-0.4964 2.28149,-1.1801 3.125,-2.0488 0.84351,-0.8687 1.48898,-1.8985 1.93554,-3.0899 0.44657,-1.2162 0.66992,-2.557 0.66992,-4.0214 0,-1.4893 -0.22335,-2.8301 -0.66992,-4.0215 -0.44656,-1.1914 -1.09203,-2.1966 -1.93554,-3.0157 -0.84351,-0.8439 -1.88455,-1.4887 -3.125,-1.9355 -1.21565,-0.4716 -2.605,-0.707 -4.16797,-0.707 z m 32.27148,0 v 27.0664 h 24.18946 v -4.7285 h -19.5 v -17.6094 h 19.46289 v -4.7285 z m 185.69335,0 v 27.0664 h 15.668 c 1.9103,0 3.6706,-0.3461 5.2832,-1.041 1.6126,-0.7198 3.0019,-1.6881 4.168,-2.9043 1.166,-1.2411 2.0717,-2.7068 2.7168,-4.3946 0.6698,-1.6878 1.0058,-3.5118 1.0058,-5.4726 0,-1.9609 -0.336,-3.748 -1.0058,-5.3614 -0.6451,-1.6381 -1.5508,-3.0404 -2.7168,-4.207 -1.1661,-1.1666 -2.5554,-2.0714 -4.168,-2.7168 -1.6126,-0.6453 -3.3729,-0.9687 -5.2832,-0.9687 z m 32.709,0 v 27.0664 h 4.6875 v -22.3379 h 14.7363 c 1.6374,0 2.9038,0.434 3.7969,1.3027 0.9179,0.8439 1.377,2.1479 1.377,3.9102 0,1.7622 -0.4345,3.1134 -1.3028,4.0566 -0.8683,0.9184 -2.1592,1.3789 -3.8711,1.3789 h -11.2754 v 4.1699 h 10.1231 l 6.8476,7.5196 h 6.6973 l -8.1484,-8.2266 c 1.7614,-0.6702 3.1242,-1.7633 4.0918,-3.2773 0.9923,-1.5389 1.4902,-3.4386 1.4902,-5.6973 0,-1.5141 -0.2234,-2.8775 -0.6699,-4.0938 -0.4466,-1.2162 -1.0921,-2.2478 -1.9356,-3.0917 -0.8435,-0.8688 -1.8742,-1.5259 -3.0898,-1.9727 -1.2157,-0.4716 -2.5927,-0.707 -4.1309,-0.707 z m 34.5664,0 v 27.0664 h 4.7266 v -27.0664 z m 7.873,0 15.5547,25.9121 c 0.2729,0.4716 0.5967,0.8441 0.9688,1.1172 0.3721,0.273 0.8188,0.4101 1.3398,0.4101 0.4962,0 0.9306,-0.1371 1.3028,-0.4101 0.3721,-0.2731 0.6939,-0.6456 0.9668,-1.1172 l 15.5918,-25.9121 h -5.4317 l -12.2441,20.8496 -12.2813,-20.8496 z m 110.25,0 13.4708,12.9941 -14.5137,14.0723 h 6.1406 l 11.2383,-11.0567 11.3496,11.0567 h 6.625 l -14.6621,-14.0723 13.4707,-12.9941 h -6.1406 l -10.1582,10.0156 -10.3086,-10.0156 z m 48.1133,0 v 11.1699 c 0,3.0033 0.7685,5.1999 2.3067,6.5898 1.5381,1.39 3.7348,2.084 6.5879,2.084 h 11.2011 v 7.2227 h 4.7266 v -7.2227 h 3.9062 v -4.541 h -3.9062 v -15.3027 h -4.7266 v 15.3027 h -11.2011 c -1.4142,0 -2.4694,-0.2988 -3.1641,-0.8945 -0.6698,-0.6205 -1.0039,-1.7117 -1.0039,-3.2754 v -11.1328 z m 41.9922,0 v 4.7285 h 17.9004 c 1.0668,0 1.8987,0.2969 2.4941,0.8926 0.6203,0.5708 0.9297,1.3774 0.9297,2.4199 0,1.0425 -0.3094,1.849 -0.9297,2.4199 -0.6202,0.5709 -1.4521,0.8574 -2.4941,0.8574 h -9.7871 c -2.729,0 -4.8007,0.6449 -6.2148,1.9356 -1.4142,1.2906 -2.1211,3.2518 -2.1211,5.8828 v 7.9297 h 25.9746 v -4.7285 h -21.5098 v -3.5372 c 0,-2.3331 1.291,-3.498 3.8711,-3.498 h 9.8242 c 1.2901,0 2.4438,-0.1863 3.461,-0.5586 1.0171,-0.3971 1.8737,-0.9314 2.5683,-1.6016 0.7195,-0.6949 1.2646,-1.5138 1.6367,-2.457 0.397,-0.9432 0.5957,-1.9729 0.5957,-3.0898 0,-1.0921 -0.1864,-2.0973 -0.5586,-3.0157 -0.3473,-0.9431 -0.8801,-1.7497 -1.5996,-2.4199 -0.6946,-0.6701 -1.5635,-1.1921 -2.6054,-1.5644 -1.0172,-0.3972 -2.1955,-0.5957 -3.5352,-0.5957 z m -270.8144,4.7285 h 10.9785 c 1.2156,0 2.3324,0.2231 3.3496,0.6699 1.042,0.422 1.9354,1.0177 2.6797,1.7871 0.7691,0.7695 1.3634,1.7009 1.7851,2.793 0.4218,1.0673 0.6328,2.2341 0.6328,3.5 0,1.2658 -0.211,2.443 -0.6328,3.5351 -0.4217,1.0921 -1.016,2.0359 -1.7851,2.8301 -0.7443,0.7695 -1.6377,1.3775 -2.6797,1.8242 -1.0172,0.4468 -2.134,0.67 -3.3496,0.67 h -10.9785 z m -182.23246,6.5898 v 3.9844 h 14.9961 v -3.9844 z m 445.57816,10.9824 c -0.7195,0 -1.3158,0.2497 -1.7871,0.7461 -0.4714,0.4716 -0.7071,1.0673 -0.7071,1.7872 0,0.7198 0.2357,1.3278 0.7071,1.8242 0.4713,0.4716 1.0676,0.707 1.7871,0.707 0.7194,0 1.328,-0.2354 1.8242,-0.707 0.4962,-0.4964 0.7441,-1.1044 0.7441,-1.8242 0,-0.7199 -0.2479,-1.3156 -0.7441,-1.7872 -0.4962,-0.4964 -1.1048,-0.7461 -1.8242,-0.7461 z"
           style="color:#000000;font-style:normal;font-variant:normal;font-weight:normal;font-stretch:normal;font-size:medium;line-height:normal;font-family:sans-serif;font-variant-ligatures:normal;font-variant-position:normal;font-variant-caps:normal;font-variant-numeric:normal;font-variant-alternates:normal;font-feature-settings:normal;text-indent:0;text-align:start;text-decoration:none;text-decoration-line:none;text-decoration-style:solid;text-decoration-color:#000000;letter-spacing:normal;word-spacing:normal;text-transform:none;writing-mode:lr-tb;direction:ltr;text-orientation:mixed;dominant-baseline:auto;baseline-shift:baseline;text-anchor:start;white-space:normal;shape-padding:0;clip-rule:nonzero;display:inline;overflow:visible;visibility:visible;opacity:1;isolation:auto;mix-blend-mode:normal;color-interpolation:sRGB;color-interpolation-filters:linearRGB;solid-color:#000000;solid-opacity:1;vector-effect:none;fill:#2080bb;fill-opacity:1;fill-rule:nonzero;stroke:none;stroke-width:4.28547;stroke-linecap:butt;stroke-linejoin:miter;stroke-miterlimit:4;stroke-dasharray:none;stroke-dashoffset:0;stroke-opacity:1;color-rendering:auto;image-rendering:auto;shape-rendering:auto;text-rendering:auto;enable-background:accumulate" />
        <g
           transform="translate(1141.6057,1976.7272)"
           style="fill:#2080bb;fill-opacity:1;stroke:none"
           id="g1936" />
      </g>
    </g>
  </g>
</svg>
