<svg xmlns="http://www.w3.org/2000/svg" width="515" height="55" viewBox="0 0 515 55" version="1.1" id="SVGRoot">
  
  <defs id="defs1821"></defs>
  <metadata id="metadata1824">
    
      
        image/svg+xml
        
        
          
            ruru
          
        
      
    
  
  
    
      
        ruru
      
    
  

</metadata>
  <path d="M 313.90234 0 C 305.62214 0 298.9082 6.7178726 298.9082 15.001953 C 298.9082 23.286077 305.62214 30 313.90234 30 C 320.25689 30 325.68464 26.044879 327.86719 20.460938 C 325.72117 23.038819 322.49238 24.677734 318.87695 24.677734 C 312.4157 24.677734 307.17773 19.440799 307.17773 12.976562 C 307.17773 6.512288 312.4157 1.2734375 318.87695 1.2734375 C 319.28466 1.2734375 319.68701 1.2913513 320.08398 1.3320312 C 318.19862 0.47687224 316.10723 -1.4802959e-16 313.90234 0 z M 319.03906 3.1933594 C 313.66272 3.1933594 309.28125 7.5781444 309.28125 12.957031 C 309.28125 18.33592 313.66272 22.71875 319.03906 22.71875 C 324.41543 22.71875 328.79687 18.33592 328.79688 12.957031 C 328.79688 7.5781444 324.41543 3.1933594 319.03906 3.1933594 z M 383.88672 3.6035156 C 383.04597 3.6035156 382.51742 4.0392781 382.29883 4.9140625 L 377.58203 22.175781 L 380.73438 22.175781 L 384.24023 9.28125 L 389.41016 21.216797 C 389.74645 22.024291 390.29216 22.427734 391.04883 22.427734 C 391.43557 22.427734 391.75559 22.326876 392.00781 22.125 C 392.27685 21.906306 392.50449 21.603721 392.68945 21.216797 L 397.88477 9.28125 L 401.39062 22.175781 L 404.57031 22.175781 L 399.87891 4.9140625 C 399.62668 4.0392781 399.11332 3.6035156 398.33984 3.6035156 C 397.6168 3.6035156 397.10344 3.9660779 396.80078 4.6894531 L 391.15234 17.658203 L 385.5 4.6894531 C 385.34867 4.3361747 385.12298 4.0659106 384.82031 3.8808594 C 384.53446 3.6958082 384.22302 3.6035156 383.88672 3.6035156 z M 319.03906 5.3945312 C 323.22602 5.3945312 326.5957 8.7681256 326.5957 12.957031 C 326.5957 17.145939 323.22602 20.517578 319.03906 20.517578 C 314.85214 20.517578 311.48242 17.145939 311.48242 12.957031 C 311.48242 8.7681256 314.85214 5.3945313 319.03906 5.3945312 z M 415.00781 8.0800781 C 414.74018 8.0800781 414.50952 8.1507703 414.31836 8.2910156 C 414.1272 8.4312652 413.96246 8.6210324 413.82227 8.8632812 L 405.83203 22.175781 L 408.60352 22.175781 L 414.91211 11.503906 L 418.00781 16.707031 L 413.74609 16.707031 L 412.59766 18.675781 L 419.17383 18.675781 L 421.25781 22.175781 L 424.18164 22.175781 L 416.17383 8.8632812 C 416.03365 8.6210324 415.86694 8.4312652 415.67578 8.2910156 C 415.49737 8.1507664 415.27542 8.0800781 415.00781 8.0800781 z M 503.70898 8.0800781 C 503.44137 8.0800781 503.21264 8.1507703 503.02148 8.2910156 C 502.83032 8.4312652 502.66362 8.6210324 502.52344 8.8632812 L 494.5332 22.175781 L 497.30469 22.175781 L 503.61328 11.503906 L 506.71094 16.707031 L 502.44727 16.707031 L 501.30078 18.675781 L 507.87695 18.675781 L 509.95898 22.175781 L 512.88477 22.175781 L 504.875 8.8632812 C 504.73482 8.6210324 504.57007 8.4312652 504.37891 8.2910156 C 504.2005 8.1507664 503.97661 8.0800781 503.70898 8.0800781 z M 362.67773 8.0996094 C 362.29541 8.0996094 361.98917 8.2322512 361.75977 8.5 C 361.54313 8.7549988 361.43555 9.106492 361.43555 9.5527344 L 361.43555 22.175781 L 363.74805 22.175781 L 363.74805 12.001953 L 373.51562 21.830078 C 373.85971 22.174322 374.22994 22.347656 374.625 22.347656 C 374.98183 22.347656 375.26773 22.219834 375.48438 21.964844 C 375.71373 21.70985 375.83008 21.353531 375.83008 20.894531 L 375.83008 8.1582031 L 373.51562 8.1582031 L 373.51562 18.332031 L 363.70898 8.5976562 C 363.53057 8.419163 363.35903 8.2913434 363.19336 8.2148438 C 363.02769 8.1383438 362.85614 8.09961 362.67773 8.0996094 z M 426.85938 8.0996094 C 426.47706 8.0996094 426.1708 8.2322512 425.94141 8.5 C 425.72476 8.7549988 425.61719 9.106492 425.61719 9.5527344 L 425.61719 22.175781 L 427.92969 22.175781 L 427.92969 12.001953 L 437.69727 21.830078 C 438.04136 22.174322 438.41157 22.347656 438.80664 22.347656 C 439.16347 22.347656 439.44937 22.219834 439.66602 21.964844 C 439.89541 21.70985 440.00976 21.353531 440.00977 20.894531 L 440.00977 8.1582031 L 437.69727 8.1582031 L 437.69727 18.332031 L 427.89062 8.5976562 C 427.71224 8.419163 427.54067 8.2913434 427.375 8.2148438 C 427.20933 8.1383438 427.03776 8.09961 426.85938 8.0996094 z M 330.41016 8.2714844 L 330.41016 22.175781 L 332.81836 22.175781 L 332.81836 10.701172 L 340.17773 10.701172 C 341.03158 10.701172 341.6945 10.936463 342.16602 11.408203 C 342.65029 11.879953 342.89258 12.517072 342.89258 13.320312 C 342.89258 14.110806 342.65029 14.747928 342.16602 15.232422 C 341.6945 15.716918 341.03158 15.958984 340.17773 15.958984 L 334.5957 15.958984 L 334.5957 18.3125 L 340.17773 18.3125 C 340.9806 18.3125 341.69586 18.191463 342.32031 17.949219 C 342.95751 17.694219 343.49249 17.342734 343.92578 16.896484 C 344.35908 16.450244 344.68858 15.920584 344.91797 15.308594 C 345.14736 14.683856 345.26367 13.996381 345.26367 13.244141 C 345.26367 12.479148 345.14736 11.789728 344.91797 11.177734 C 344.68858 10.565744 344.35908 10.049656 343.92578 9.6289062 C 343.49249 9.1954142 342.95751 8.8642648 342.32031 8.6347656 C 341.69586 8.3925168 340.9806 8.2714844 340.17773 8.2714844 L 330.41016 8.2714844 z M 346.98438 8.2714844 L 346.98438 22.175781 L 359.4082 22.175781 L 359.4082 19.746094 L 349.39258 19.746094 L 349.39258 10.701172 L 359.38867 10.701172 L 359.38867 8.2714844 L 346.98438 8.2714844 z M 442.36133 8.2714844 L 442.36133 22.175781 L 450.41016 22.175781 C 451.39143 22.175781 452.29471 21.997619 453.12305 21.640625 C 453.95141 21.270875 454.66669 20.773178 455.26562 20.148438 C 455.86458 19.510944 456.32881 18.757615 456.66016 17.890625 C 457.00423 17.023636 457.17578 16.087318 457.17578 15.080078 C 457.17578 14.07285 457.00423 13.154911 456.66016 12.326172 C 456.32881 11.484682 455.86458 10.763306 455.26562 10.164062 C 454.66669 9.5648224 453.95141 9.101024 453.12305 8.7695312 C 452.29471 8.4380328 451.39143 8.2714844 450.41016 8.2714844 L 442.36133 8.2714844 z M 459.16406 8.2714844 L 459.16406 22.175781 L 461.57227 22.175781 L 461.57227 10.701172 L 469.14258 10.701172 C 469.98368 10.701172 470.63497 10.922897 471.09375 11.369141 C 471.56527 11.802637 471.80078 12.473673 471.80078 13.378906 C 471.80078 14.28414 471.5769 14.978397 471.13086 15.462891 C 470.68482 15.934625 470.02191 16.169922 469.14258 16.169922 L 463.35156 16.169922 L 463.35156 18.3125 L 468.55078 18.3125 L 472.06836 22.175781 L 475.50977 22.175781 L 471.32227 17.949219 C 472.22705 17.604969 472.92877 17.043359 473.42578 16.265625 C 473.93554 15.475141 474.18945 14.500084 474.18945 13.339844 C 474.18945 12.562104 474.07509 11.861072 473.8457 11.236328 C 473.6163 10.611582 473.28485 10.081937 472.85156 9.6484375 C 472.41826 9.2021951 471.88812 8.8642648 471.26367 8.6347656 C 470.63922 8.3925168 469.9327 8.2714844 469.14258 8.2714844 L 459.16406 8.2714844 z M 476.9043 8.2714844 L 476.9043 22.175781 L 479.33203 22.175781 L 479.33203 8.2714844 L 476.9043 8.2714844 z M 480.9375 8.2714844 L 488.92773 21.582031 C 489.06792 21.824275 489.23462 22.016 489.42578 22.15625 C 489.61694 22.2965 489.84566 22.367188 490.11328 22.367188 C 490.36815 22.367188 490.59009 22.296498 490.78125 22.15625 C 490.97241 22.016 491.13911 21.824275 491.2793 21.582031 L 499.28906 8.2714844 L 496.49805 8.2714844 L 490.20898 18.982422 L 483.90039 8.2714844 L 480.9375 8.2714844 z M 444.77148 10.701172 L 450.41016 10.701172 C 451.03461 10.701172 451.60836 10.815422 452.13086 11.044922 C 452.66611 11.261666 453.12354 11.567647 453.50586 11.962891 C 453.90092 12.358137 454.20718 12.835494 454.42383 13.396484 C 454.64047 13.944728 454.75 14.545072 454.75 15.195312 C 454.75 15.845556 454.64047 16.450725 454.42383 17.011719 C 454.20718 17.572702 453.90092 18.05685 453.50586 18.464844 C 453.12354 18.86009 452.66611 19.17285 452.13086 19.402344 C 451.60836 19.631844 451.03461 19.746094 450.41016 19.746094 L 444.77148 19.746094 L 444.77148 10.701172 z M 351.16992 14.085938 L 351.16992 16.132812 L 358.87305 16.132812 L 358.87305 14.085938 L 351.16992 14.085938 z M 410.54883 30.300781 L 410.54883 54.769531 L 431.27344 54.769531 L 431.27344 50.494141 L 414.82227 50.494141 L 414.82227 30.300781 L 410.54883 30.300781 z M 503.27148 35.994141 C 501.9117 35.994141 500.64545 36.224384 499.47266 36.683594 C 498.29984 37.142724 497.27897 37.789805 496.41211 38.623047 C 495.56226 39.439286 494.89332 40.417293 494.40039 41.556641 C 493.90749 42.695987 493.6582 43.94623 493.6582 45.306641 C 493.6582 46.667042 493.90744 47.93212 494.40039 49.105469 C 494.89332 50.278818 495.56226 51.309069 496.41211 52.193359 C 497.27897 53.060614 498.29984 53.749621 499.47266 54.259766 C 500.64545 54.752914 501.9117 55 503.27148 55 C 504.61425 55 505.8721 54.75297 507.04492 54.259766 C 508.21774 53.749621 509.23862 53.060614 510.10547 52.193359 C 510.9723 51.309069 511.65159 50.278818 512.14453 49.105469 C 512.63742 47.93212 512.88477 46.667042 512.88477 45.306641 C 512.88477 43.94623 512.63747 42.695987 512.14453 41.556641 C 511.65159 40.417293 510.9723 39.439286 510.10547 38.623047 C 509.23862 37.789805 508.21774 37.142724 507.04492 36.683594 C 505.8721 36.224432 504.61425 35.994141 503.27148 35.994141 z M 433.48828 36.226562 L 442.71875 45.128906 L 432.77539 54.769531 L 436.98242 54.769531 L 444.68164 47.195312 L 452.45898 54.769531 L 456.99609 54.769531 L 446.95117 45.128906 L 456.18164 36.226562 L 451.97461 36.226562 L 445.01367 43.087891 L 437.95117 36.226562 L 433.48828 36.226562 z M 466.8125 36.226562 L 466.8125 46.708984 L 480.70898 46.708984 C 481.57584 46.708984 482.23834 46.912269 482.69727 47.320312 C 483.15619 47.711423 483.38672 48.306218 483.38672 49.105469 C 483.38672 49.8367 483.15622 50.425062 482.69727 50.867188 C 482.23834 51.309329 481.57584 51.529297 480.70898 51.529297 L 466.8125 51.529297 L 466.8125 54.769531 L 480.70898 54.769531 C 481.67782 54.769531 482.5166 54.633534 483.23047 54.361328 C 483.94435 54.089259 484.53972 53.714424 485.01562 53.238281 C 485.49156 52.745125 485.84799 52.167103 486.08594 51.503906 C 486.32391 50.840702 486.44531 50.118176 486.44531 49.335938 C 486.44531 47.533402 485.95265 46.190899 484.9668 45.306641 C 483.99796 44.422374 482.57868 43.980469 480.70898 43.980469 L 470.15234 43.980469 L 470.15234 39.464844 L 485.55273 39.464844 L 485.55273 36.226562 L 466.8125 36.226562 z M 503.27148 39.259766 C 504.27431 39.259766 505.16735 39.421058 505.94922 39.744141 C 506.74809 40.050235 507.41897 40.477322 507.96289 41.021484 C 508.5068 41.565655 508.91552 42.219142 509.1875 42.984375 C 509.47647 43.749631 509.62109 44.574717 509.62109 45.458984 C 509.62109 46.360271 509.47656 47.193752 509.1875 47.958984 C 508.91552 48.724242 508.5068 49.388035 507.96289 49.949219 C 507.41897 50.510377 506.74809 50.952275 505.94922 51.275391 C 505.16735 51.598474 504.26594 51.759766 503.24609 51.759766 C 502.22627 51.759766 501.32483 51.598442 500.54297 51.275391 C 499.76109 50.952275 499.09861 50.510377 498.55469 49.949219 C 498.01079 49.388035 497.59362 48.724242 497.30469 47.958984 C 497.03272 47.193752 496.89648 46.360271 496.89648 45.458984 C 496.89648 44.574717 497.03275 43.749631 497.30469 42.984375 C 497.59362 42.219142 498.01079 41.565655 498.55469 41.021484 C 499.09861 40.477322 499.76109 40.050235 500.54297 39.744141 C 501.34184 39.421034 502.25165 39.259766 503.27148 39.259766 z M 490.37109 51.503906 C 489.87817 51.503906 489.46943 51.675656 489.14648 52.015625 C 488.82355 52.338732 488.66211 52.745125 488.66211 53.238281 C 488.66211 53.731437 488.82367 54.148153 489.14648 54.488281 C 489.46943 54.811357 489.87817 54.972656 490.37109 54.972656 C 490.864 54.972656 491.28116 54.811389 491.62109 54.488281 C 491.96106 54.148153 492.13086 53.731437 492.13086 53.238281 C 492.13086 52.745125 491.96106 52.338732 491.62109 52.015625 C 491.28116 51.675528 490.864 51.503906 490.37109 51.503906 z" style="color:#000000;fill:#2080bb;stroke:none;stroke-width:3.77953" id="path5238"></path>
</svg>
