<svg xmlns="http://www.w3.org/2000/svg" width="515" height="55" viewBox="0 0 515 55" version="1.1" id="SVGRoot">
  
  <defs id="defs1821"></defs>
  <metadata id="metadata1824">
    
      
        image/svg+xml
        
        
          
            ruru
          
        
      
    
  </metadata>
  <path d="M 313.90234 0 C 305.62212 0 298.9082 6.7178558 298.9082 15.001953 C 298.9082 23.286093 305.62212 30 313.90234 30 C 320.25689 30 325.68464 26.044891 327.86719 20.460938 C 325.72117 23.038825 322.49238 24.677734 318.87695 24.677734 C 312.41568 24.677734 307.17773 19.440811 307.17773 12.976562 C 307.17773 6.512274 312.41568 1.2734375 318.87695 1.2734375 C 319.28466 1.2734375 319.68701 1.2913513 320.08398 1.3320312 C 318.1986 0.47687072 316.10723 -1.4802959e-16 313.90234 0 z M 319.03906 3.1933594 C 313.6627 3.1933594 309.28125 7.5781332 309.28125 12.957031 C 309.28125 18.33593 313.6627 22.71875 319.03906 22.71875 C 324.41543 22.71875 328.79687 18.33593 328.79688 12.957031 C 328.79688 7.5781332 324.41543 3.1933594 319.03906 3.1933594 z M 383.88672 3.6035156 C 383.04597 3.6035156 382.51742 4.0392763 382.29883 4.9140625 L 377.58203 22.175781 L 380.73438 22.175781 L 384.24023 9.28125 L 389.41016 21.216797 C 389.74645 22.024293 390.29216 22.427734 391.04883 22.427734 C 391.43557 22.427734 391.75559 22.326876 392.00781 22.125 C 392.27685 21.906306 392.50449 21.603723 392.68945 21.216797 L 397.88477 9.28125 L 401.39062 22.175781 L 404.57031 22.175781 L 399.87891 4.9140625 C 399.62668 4.0392763 399.11332 3.6035156 398.33984 3.6035156 C 397.6168 3.6035156 397.10344 3.9660765 396.80078 4.6894531 L 391.15234 17.658203 L 385.5 4.6894531 C 385.34867 4.3361739 385.12298 4.065911 384.82031 3.8808594 C 384.53446 3.6958078 384.22302 3.6035156 383.88672 3.6035156 z M 319.03906 5.3945312 C 323.22602 5.3945312 326.5957 8.7681168 326.5957 12.957031 C 326.5957 17.145947 323.22602 20.517578 319.03906 20.517578 C 314.85212 20.517578 311.48242 17.145947 311.48242 12.957031 C 311.48242 8.7681168 314.85212 5.3945313 319.03906 5.3945312 z M 415.00781 8.0800781 C 414.74018 8.0800781 414.50952 8.1507703 414.31836 8.2910156 C 414.1272 8.4312654 413.96246 8.6210318 413.82227 8.8632812 L 405.83203 22.175781 L 408.60352 22.175781 L 414.91211 11.503906 L 418.00781 16.707031 L 413.74609 16.707031 L 412.59766 18.675781 L 419.17383 18.675781 L 421.25781 22.175781 L 424.18164 22.175781 L 416.17383 8.8632812 C 416.03365 8.6210318 415.86694 8.4312654 415.67578 8.2910156 C 415.49737 8.150766 415.27542 8.0800781 415.00781 8.0800781 z M 503.70898 8.0800781 C 503.44137 8.0800781 503.21264 8.1507703 503.02148 8.2910156 C 502.83032 8.4312654 502.66362 8.6210318 502.52344 8.8632812 L 494.5332 22.175781 L 497.30469 22.175781 L 503.61328 11.503906 L 506.71094 16.707031 L 502.44727 16.707031 L 501.30078 18.675781 L 507.87695 18.675781 L 509.95898 22.175781 L 512.88477 22.175781 L 504.875 8.8632812 C 504.73482 8.6210318 504.57007 8.4312654 504.37891 8.2910156 C 504.2005 8.150766 503.97661 8.0800781 503.70898 8.0800781 z M 362.67773 8.0996094 C 362.29541 8.0996094 361.98917 8.2322506 361.75977 8.5 C 361.54313 8.7549994 361.43555 9.1064912 361.43555 9.5527344 L 361.43555 22.175781 L 363.74805 22.175781 L 363.74805 12.001953 L 373.51562 21.830078 C 373.85971 22.174322 374.22994 22.347656 374.625 22.347656 C 374.98183 22.347656 375.26773 22.219836 375.48438 21.964844 C 375.71375 21.70985 375.83008 21.353531 375.83008 20.894531 L 375.83008 8.1582031 L 373.51562 8.1582031 L 373.51562 18.332031 L 363.70898 8.5976562 C 363.53057 8.4191626 363.35903 8.2913436 363.19336 8.2148438 C 363.02769 8.1383438 362.85614 8.0996097 362.67773 8.0996094 z M 426.85938 8.0996094 C 426.47706 8.0996094 426.1708 8.2322506 425.94141 8.5 C 425.72476 8.7549994 425.61719 9.1064912 425.61719 9.5527344 L 425.61719 22.175781 L 427.92969 22.175781 L 427.92969 12.001953 L 437.69727 21.830078 C 438.04136 22.174322 438.41157 22.347656 438.80664 22.347656 C 439.16347 22.347656 439.44937 22.219836 439.66602 21.964844 C 439.89541 21.70985 440.00976 21.353531 440.00977 20.894531 L 440.00977 8.1582031 L 437.69727 8.1582031 L 437.69727 18.332031 L 427.89062 8.5976562 C 427.71222 8.4191626 427.54067 8.2913436 427.375 8.2148438 C 427.20933 8.1383438 427.03778 8.0996097 426.85938 8.0996094 z M 330.41016 8.2714844 L 330.41016 22.175781 L 332.81836 22.175781 L 332.81836 10.701172 L 340.17773 10.701172 C 341.03158 10.701172 341.6945 10.936461 342.16602 11.408203 C 342.65029 11.879953 342.89258 12.51707 342.89258 13.320312 C 342.89258 14.110806 342.65029 14.747928 342.16602 15.232422 C 341.6945 15.71692 341.03158 15.958984 340.17773 15.958984 L 334.5957 15.958984 L 334.5957 18.3125 L 340.17773 18.3125 C 340.9806 18.3125 341.69586 18.191463 342.32031 17.949219 C 342.95751 17.694219 343.49249 17.342734 343.92578 16.896484 C 344.35908 16.450242 344.68858 15.920586 344.91797 15.308594 C 345.14736 14.683856 345.26367 13.996383 345.26367 13.244141 C 345.26367 12.479148 345.14736 11.789728 344.91797 11.177734 C 344.68858 10.565742 344.35908 10.049656 343.92578 9.6289062 C 343.49249 9.1954132 342.95751 8.8642652 342.32031 8.6347656 C 341.69586 8.3925162 340.9806 8.2714844 340.17773 8.2714844 L 330.41016 8.2714844 z M 346.98438 8.2714844 L 346.98438 22.175781 L 359.4082 22.175781 L 359.4082 19.746094 L 349.39258 19.746094 L 349.39258 10.701172 L 359.38867 10.701172 L 359.38867 8.2714844 L 346.98438 8.2714844 z M 442.36133 8.2714844 L 442.36133 22.175781 L 450.41016 22.175781 C 451.39143 22.175781 452.29471 21.997619 453.12305 21.640625 C 453.95141 21.270875 454.66667 20.77318 455.26562 20.148438 C 455.86458 19.510944 456.32881 18.757617 456.66016 17.890625 C 457.00423 17.023634 457.17578 16.08732 457.17578 15.080078 C 457.17578 14.072848 457.00423 13.154913 456.66016 12.326172 C 456.32881 11.48468 455.86458 10.763306 455.26562 10.164062 C 454.66667 9.5648202 453.95141 9.1010246 453.12305 8.7695312 C 452.29471 8.438032 451.39143 8.2714844 450.41016 8.2714844 L 442.36133 8.2714844 z M 459.16406 8.2714844 L 459.16406 22.175781 L 461.57227 22.175781 L 461.57227 10.701172 L 469.14258 10.701172 C 469.98368 10.701172 470.63497 10.922897 471.09375 11.369141 C 471.56527 11.802639 471.80078 12.473671 471.80078 13.378906 C 471.80078 14.284142 471.5769 14.978397 471.13086 15.462891 C 470.68482 15.934627 470.02191 16.169922 469.14258 16.169922 L 463.35156 16.169922 L 463.35156 18.3125 L 468.55078 18.3125 L 472.06836 22.175781 L 475.50977 22.175781 L 471.32227 17.949219 C 472.22707 17.604969 472.92877 17.043361 473.42578 16.265625 C 473.93554 15.475139 474.18945 14.500086 474.18945 13.339844 C 474.18945 12.562102 474.07509 11.861072 473.8457 11.236328 C 473.6163 10.61158 473.28485 10.081937 472.85156 9.6484375 C 472.41826 9.2021943 471.88812 8.8642652 471.26367 8.6347656 C 470.63922 8.3925162 469.9327 8.2714844 469.14258 8.2714844 L 459.16406 8.2714844 z M 476.9043 8.2714844 L 476.9043 22.175781 L 479.33203 22.175781 L 479.33203 8.2714844 L 476.9043 8.2714844 z M 480.9375 8.2714844 L 488.92773 21.582031 C 489.06792 21.824275 489.23462 22.016 489.42578 22.15625 C 489.61694 22.2965 489.84566 22.367188 490.11328 22.367188 C 490.36815 22.367188 490.59009 22.296498 490.78125 22.15625 C 490.97241 22.016 491.13911 21.824275 491.2793 21.582031 L 499.28906 8.2714844 L 496.49805 8.2714844 L 490.20898 18.982422 L 483.90039 8.2714844 L 480.9375 8.2714844 z M 444.77148 10.701172 L 450.41016 10.701172 C 451.03461 10.701172 451.60836 10.815422 452.13086 11.044922 C 452.66611 11.261666 453.12354 11.567647 453.50586 11.962891 C 453.90092 12.358139 454.20718 12.835492 454.42383 13.396484 C 454.64047 13.944728 454.75 14.54507 454.75 15.195312 C 454.75 15.845556 454.64047 16.450725 454.42383 17.011719 C 454.20718 17.572704 453.90092 18.05685 453.50586 18.464844 C 453.12354 18.860092 452.66611 19.17285 452.13086 19.402344 C 451.60836 19.631844 451.03461 19.746094 450.41016 19.746094 L 444.77148 19.746094 L 444.77148 10.701172 z M 351.16992 14.085938 L 351.16992 16.132812 L 358.87305 16.132812 L 358.87305 14.085938 L 351.16992 14.085938 z M 460.80664 30 C 459.68957 30 458.9838 30.580434 458.69336 31.742188 L 452.42773 54.664062 L 456.61719 54.664062 L 461.27539 37.541016 L 468.14648 53.390625 C 468.59331 54.463014 469.31886 55 470.32422 55 C 470.83808 55 471.26058 54.865754 471.5957 54.597656 C 471.95316 54.307219 472.2562 53.904477 472.50195 53.390625 L 479.4043 37.541016 L 484.06445 54.664062 L 488.28516 54.664062 L 482.05273 31.742188 C 481.7176 30.580434 481.03746 30 480.00977 30 C 479.04909 30 478.36504 30.480725 477.96289 31.441406 L 470.45703 48.666016 L 462.95117 31.441406 C 462.75009 30.972237 462.44707 30.614895 462.04492 30.369141 C 461.66512 30.123385 461.25347 30 460.80664 30 z M 392.33984 30.300781 L 392.33984 54.664062 L 396.56445 54.664062 L 396.56445 34.556641 L 409.83398 34.556641 C 411.30851 34.556641 412.44961 34.94852 413.25391 35.730469 C 414.08055 36.490078 414.49219 37.661805 414.49219 39.248047 C 414.49219 40.834287 414.10226 42.05337 413.32031 42.902344 C 412.53836 43.728977 411.37554 44.142578 409.83398 44.142578 L 399.67969 44.142578 L 399.67969 47.894531 L 408.79492 47.894531 L 414.96094 54.664062 L 420.99219 54.664062 L 413.6543 47.257812 C 415.24054 46.654594 416.46852 45.673374 417.33984 44.310547 C 418.2335 42.925377 418.68164 41.216663 418.68164 39.183594 C 418.68164 37.820766 418.48027 36.590824 418.07812 35.496094 C 417.67599 34.401364 417.09555 33.474453 416.33594 32.714844 C 415.57633 31.932895 414.64942 31.339647 413.55469 30.9375 C 412.45995 30.513012 411.21915 30.300781 409.83398 30.300781 L 392.33984 30.300781 z M 433.76172 30.300781 C 432.06376 30.300781 430.4893 30.592952 429.03711 31.173828 C 427.60725 31.732365 426.3556 32.535891 425.2832 33.585938 C 424.23316 34.613642 423.40595 35.865309 422.80273 37.339844 C 422.22185 38.814376 421.93164 40.445108 421.93164 42.232422 C 421.93164 43.997394 422.22185 45.638987 422.80273 47.158203 C 423.40595 48.677421 424.23316 49.994256 425.2832 51.111328 C 426.3556 52.206059 427.60725 53.078661 429.03711 53.726562 C 430.4893 54.352124 432.06376 54.664062 433.76172 54.664062 L 439.69336 54.664062 C 441.436 54.664062 443.03414 54.352124 444.48633 53.726562 C 445.93852 53.078661 447.19021 52.206059 448.24023 51.111328 C 449.31263 49.994256 450.13787 48.677421 450.71875 47.158203 C 451.32197 45.638987 451.62305 43.997394 451.62305 42.232422 C 451.62305 40.467449 451.33479 38.858444 450.75391 37.40625 C 450.17304 35.931716 449.35668 34.669188 448.30664 33.619141 C 447.25659 32.569094 445.99212 31.754706 444.51758 31.173828 C 443.06539 30.592952 441.45834 30.300781 439.69336 30.300781 L 433.76172 30.300781 z M 491.10156 30.300781 L 491.10156 54.664062 L 512.88477 54.664062 L 512.88477 50.408203 L 495.32422 50.408203 L 495.32422 34.556641 L 512.84961 34.556641 L 512.84961 30.300781 L 491.10156 30.300781 z M 433.76172 34.556641 L 439.69336 34.556641 C 440.81044 34.556641 441.83706 34.758011 442.77539 35.160156 C 443.71373 35.539961 444.51922 36.076947 445.18945 36.769531 C 445.88204 37.462116 446.41902 38.300179 446.79883 39.283203 C 447.17863 40.243884 447.36719 41.294182 447.36719 42.433594 C 447.36719 43.573008 447.17863 44.634163 446.79883 45.617188 C 446.41902 46.600211 445.88204 47.449137 445.18945 48.164062 C 444.51922 48.856648 443.71373 49.404495 442.77539 49.806641 C 441.83706 50.208785 440.81044 50.408203 439.69336 50.408203 L 433.76172 50.408203 C 432.66698 50.408203 431.65123 50.208785 430.71289 49.806641 C 429.79689 49.404495 429.00422 48.856648 428.33398 48.164062 C 427.66375 47.449137 427.13762 46.600211 426.75781 45.617188 C 426.37801 44.634163 426.1875 43.573008 426.1875 42.433594 C 426.1875 41.27184 426.37801 40.208729 426.75781 39.248047 C 427.13762 38.287366 427.66375 37.462116 428.33398 36.769531 C 429.00422 36.076947 429.79689 35.539961 430.71289 35.160156 C 431.65123 34.758011 432.66698 34.556641 433.76172 34.556641 z M 498.44141 40.488281 L 498.44141 44.076172 L 511.94531 44.076172 L 511.94531 40.488281 L 498.44141 40.488281 z" style="font-style:normal;font-variant:normal;font-weight:normal;font-stretch:normal;font-size:10.2736px;line-height:0%;font-family:'Good Times Rg';-inkscape-font-specification:'Good Times Rg';letter-spacing:0px;word-spacing:0px;fill:#2080bb;fill-opacity:1;stroke:none;stroke-width:0.856134" id="path6082"></path>
</svg>
