<?xml version="1.0" encoding="UTF-8" standalone="no"?>
<svg
   xmlns:dc="http://purl.org/dc/elements/1.1/"
   xmlns:cc="http://creativecommons.org/ns#"
   xmlns:rdf="http://www.w3.org/1999/02/22-rdf-syntax-ns#"
   xmlns:svg="http://www.w3.org/2000/svg"
   xmlns="http://www.w3.org/2000/svg"
   xmlns:sodipodi="http://sodipodi.sourceforge.net/DTD/sodipodi-0.dtd"
   xmlns:inkscape="http://www.inkscape.org/namespaces/inkscape"
   width="498"
   height="50.000011"
   viewBox="0 0 498 50.000011"
   version="1.1"
   id="SVGRoot"
   sodipodi:docname="header-tr-omlx43.svg"
   inkscape:version="1.0.2 (e86c870879, 2021-01-15)">
  <defs
     id="defs1821" />
  <sodipodi:namedview
     id="base"
     pagecolor="#ffffff"
     bordercolor="#666666"
     borderopacity="1.0"
     inkscape:pageopacity="0.0"
     inkscape:pageshadow="2"
     inkscape:zoom="1.4"
     inkscape:cx="335.71051"
     inkscape:cy="61.390186"
     inkscape:document-units="px"
     inkscape:current-layer="layer1"
     inkscape:document-rotation="0"
     showgrid="true"
     fit-margin-top="0"
     fit-margin-left="0"
     fit-margin-right="0"
     fit-margin-bottom="0">
    <inkscape:grid
       type="xygrid"
       id="grid1830"
       originx="124.99023"
       originy="-331.0078" />
  </sodipodi:namedview>
  <metadata
     id="metadata1824">
    <rdf:RDF>
      <cc:Work
         rdf:about="">
        <dc:format>image/svg+xml</dc:format>
        <dc:type
           rdf:resource="http://purl.org/dc/dcmitype/StillImage" />
        <dc:title></dc:title>
      </cc:Work>
    </rdf:RDF>
  </metadata>
  <g
     inkscape:label="Livello 1"
     inkscape:groupmode="layer"
     id="layer1"
     transform="translate(124.99023,-331.0078)">
    <path
       id="text1787"
       style="font-style:normal;font-variant:normal;font-weight:normal;font-stretch:normal;font-size:10.2736px;line-height:0%;font-family:'Good Times Rg';-inkscape-font-specification:'Good Times Rg';letter-spacing:0px;word-spacing:0px;fill:#2080bb;fill-opacity:1;stroke:none;stroke-width:0.856133"
       d="m -100,331.00781 c -13.80042,0 -24.99023,11.19703 -24.99023,25.00391 0,13.80697 11.18981,24.99609 24.99023,24.99609 10.59093,0 19.63974,-6.5918 23.27734,-15.89843 -3.57671,4.29649 -8.95863,7.02929 -14.98437,7.02929 -10.76884,0 -19.5,-8.73011 -19.5,-19.5039 0,-10.77387 8.73116,-19.50586 19.5,-19.50586 0.67953,0 1.3501,0.0318 2.01172,0.0996 -3.14234,-1.42528 -6.62986,-2.22071 -10.30469,-2.22071 z m 8.5625,5.32227 c -8.96065,0 -16.26367,7.30661 -16.26367,16.27148 0,8.96487 7.30302,16.27149 16.26367,16.27149 8.96064,0 16.26367,-7.30662 16.26367,-16.27149 0,-8.96487 -7.30303,-16.27148 -16.26367,-16.27148 z m 108.08008,0.68359 c -1.40125,0 -2.28412,0.72757 -2.64844,2.18555 L 6.13281,367.9668 h 5.25586 l 5.8418,-21.49024 8.61719,19.89258 c 0.56049,1.34583 1.4713,2.01758 2.73242,2.01758 0.64457,0 1.17728,-0.16745 1.59765,-0.50391 0.4484,-0.36449 0.8265,-0.86879 1.13477,-1.51367 l 8.66016,-19.89258 5.84375,21.49024 h 5.29687 l -7.81836,-28.76758 c -0.42037,-1.45798 -1.27531,-2.18555 -2.56445,-2.18555 -1.20507,0 -2.06001,0.60296 -2.56445,1.8086 L 28.75,360.43945 19.33203,338.82227 c -0.25222,-0.5888 -0.63032,-1.03729 -1.13476,-1.34571 -0.47643,-0.30842 -0.99419,-0.46289 -1.55469,-0.46289 z m 227.48828,0.37695 v 30.57618 h 25.89453 V 362.625 H 249.4707 V 337.39062 Z M -91.4375,340 c 6.97828,0 12.5957,5.62 12.5957,12.60156 0,6.98156 -5.61742,12.60156 -12.5957,12.60156 -6.97828,0 -12.5957,-5.62 -12.5957,-12.60156 C -104.0332,345.62 -98.41578,340 -91.4375,340 Z m 159.94727,4.47461 c -0.44604,0 -0.82984,0.11781 -1.14844,0.35156 -0.3186,0.23375 -0.59449,0.55133 -0.82813,0.95508 L 53.2168,367.9668 h 4.61914 l 10.51367,-17.78516 5.16211,8.66992 h -7.10547 l -1.91211,3.28321 h 10.96094 l 3.47265,5.83203 h 4.87305 L 70.45312,345.78125 c -0.23363,-0.40375 -0.50952,-0.72133 -0.82812,-0.95508 -0.29736,-0.23375 -0.6692,-0.35156 -1.11523,-0.35156 z m 147.83593,0 c -0.44603,0 -0.82788,0.11781 -1.14648,0.35156 -0.3186,0.23375 -0.59449,0.55133 -0.82813,0.95508 l -13.31836,22.18555 h 4.61915 l 10.51367,-17.78516 5.16211,8.66992 h -7.10547 l -1.91016,3.28321 h 10.95899 l 3.47265,5.83203 h 4.875 l -13.34961,-22.18555 c -0.23364,-0.40375 -0.50952,-0.72133 -0.82812,-0.95508 -0.29736,-0.23375 -0.6692,-0.35156 -1.11524,-0.35156 z m -235.05273,0.0332 c -0.6372,0 -1.14698,0.22172 -1.5293,0.66797 -0.36108,0.425 -0.54101,1.01016 -0.54101,1.75391 v 21.03711 h 3.85546 v -16.95703 l 16.2793,16.38281 c 0.57348,0.57374 1.18922,0.86133 1.84766,0.86133 0.59472,0 1.07251,-0.21173 1.43359,-0.63672 0.38232,-0.425 0.57422,-1.02016 0.57422,-1.78516 v -21.22851 h -3.85547 v 16.95703 l -16.34375,-16.22461 c -0.29736,-0.2975 -0.58521,-0.50922 -0.86133,-0.63672 -0.27611,-0.1275 -0.56201,-0.19141 -0.85937,-0.19141 z m 106.96875,0 c -0.6372,0 -1.14698,0.22172 -1.5293,0.66797 -0.36108,0.425 -0.54101,1.01016 -0.54101,1.75391 v 21.03711 h 3.85547 v -16.95703 l 16.27929,16.38281 c 0.57348,0.57374 1.18922,0.86133 1.84766,0.86133 0.59472,0 1.07251,-0.21173 1.43359,-0.63672 0.38232,-0.425 0.57422,-1.02016 0.57422,-1.78516 v -21.22851 h -3.85547 v 16.95703 L 89.98242,345.33594 c -0.29736,-0.2975 -0.58325,-0.50922 -0.85937,-0.63672 -0.27612,-0.1275 -0.56397,-0.19141 -0.86133,-0.19141 z m -160.74805,0.28711 v 23.17188 h 4.01367 v -19.125 h 12.26758 c 1.42308,0 2.52663,0.39344 3.3125,1.17968 0.80712,0.78625 1.21094,1.84876 1.21094,3.1875 0,1.31749 -0.40382,2.38001 -1.21094,3.1875 -0.78587,0.8075 -1.88942,1.21094 -3.3125,1.21094 h -9.30469 v 3.91992 h 9.30469 c 1.33812,0 2.52761,-0.20172 3.56836,-0.60546 1.062,-0.425 1.95363,-1.00821 2.67578,-1.75196 0.72216,-0.74374 1.27393,-1.62649 1.65625,-2.64648 0.38232,-1.04124 0.57422,-2.18767 0.57422,-3.44141 0,-1.27499 -0.1919,-2.42337 -0.57422,-3.44336 -0.38232,-1.01999 -0.93409,-1.88078 -1.65625,-2.58203 -0.72215,-0.72249 -1.61378,-1.27375 -2.67578,-1.65625 -1.04075,-0.40375 -2.23024,-0.60547 -3.56836,-0.60547 z m 27.62305,0 v 23.17188 h 20.70898 v -4.04883 H -40.84961 V 348.8418 h 16.66211 v -4.04688 z m 158.96289,0 v 23.17188 h 13.41406 c 1.63547,0 3.14285,-0.29759 4.52344,-0.89258 1.38059,-0.61625 2.57008,-1.44509 3.56836,-2.48633 0.99827,-1.06249 1.77393,-2.31673 2.32617,-3.76172 0.57348,-1.44499 0.85938,-3.00681 0.85938,-4.68555 0,-1.67873 -0.2859,-3.2086 -0.85938,-4.58984 -0.55224,-1.40249 -1.3279,-2.60282 -2.32617,-3.60156 -0.99828,-0.99874 -2.18777,-1.77368 -3.56836,-2.32617 -1.38059,-0.5525 -2.88797,-0.82813 -4.52344,-0.82813 z m 28.00586,0 v 23.17188 h 4.01367 v -19.125 h 12.61719 c 1.40183,0 2.48536,0.37149 3.25,1.11523 0.78587,0.7225 1.17773,1.83892 1.17773,3.34766 0,1.50874 -0.37184,2.66711 -1.11523,3.47461 -0.7434,0.78624 -1.84695,1.17968 -3.3125,1.17968 h -9.6543 v 3.56836 h 8.66602 l 5.86328,6.43946 h 5.73437 l -6.97851,-7.04492 c 1.50803,-0.57375 2.6775,-1.50845 3.50586,-2.80469 0.84959,-1.31749 1.27343,-2.94322 1.27343,-4.87696 0,-1.29624 -0.18994,-2.46461 -0.57226,-3.50585 -0.38232,-1.04125 -0.93605,-1.92204 -1.6582,-2.64454 -0.72216,-0.74374 -1.60378,-1.30695 -2.64454,-1.68945 -1.04075,-0.40375 -2.21828,-0.60547 -3.53515,-0.60547 z m 29.56641,0 v 23.17188 h 4.04492 v -23.17188 z m 6.7207,0 13.31836,22.1836 c 0.23364,0.40374 0.50952,0.72328 0.82812,0.95703 0.3186,0.23375 0.70045,0.34961 1.14649,0.34961 0.42479,0 0.79663,-0.11586 1.11523,-0.34961 0.3186,-0.23375 0.59449,-0.55329 0.82813,-0.95703 l 13.34961,-22.1836 h -4.6504 l -10.48242,17.84961 -10.51367,-17.84961 z m 94.4043,0 11.5332,11.12305 -12.42578,12.04883 h 5.25586 l 9.62304,-9.4668 9.7168,9.4668 h 5.67187 l -12.55273,-12.04883 11.5332,-11.12305 h -5.25781 l -8.69726,8.57422 -8.82618,-8.57422 z m 41.1621,0 v 9.5625 c 0,2.57123 0.65774,4.45064 1.97461,5.64063 1.31688,1.18999 3.19804,1.78515 5.64063,1.78515 h 9.58984 v 6.1836 h 4.04492 v -6.1836 h 3.34571 v -3.88867 h -3.34571 v -13.09961 h -4.04492 v 13.09961 h -9.58984 c -1.21068,0 -2.11427,-0.25563 -2.70899,-0.76562 -0.57347,-0.53125 -0.85937,-1.46595 -0.85937,-2.80469 v -9.5293 z m 35.30079,0 v 4.01563 h 14.52734 c 1.33811,0 2.36964,0.21172 3.0918,0.63672 0.72215,0.40374 1.08203,1.14868 1.08203,2.23242 0,1.01999 -0.27589,1.74102 -0.82813,2.16601 -0.55224,0.425 -1.40187,0.63868 -2.54883,0.63868 h -9.93945 v 3.41015 h 10.22656 c 1.14696,0 2.01857,0.25563 2.61328,0.76563 0.59472,0.50999 0.89063,1.24297 0.89063,2.19922 0,1.01999 -0.40382,1.78492 -1.21094,2.29492 -0.80711,0.50999 -1.8467,0.76367 -3.12109,0.76367 h -14.87891 v 4.04883 h 15.86719 c 1.12571,0 2.14528,-0.16977 3.05859,-0.50977 0.93456,-0.34 1.72023,-0.80735 2.35743,-1.40234 0.65843,-0.61625 1.15625,-1.34923 1.49609,-2.19922 0.36108,-0.87124 0.54297,-1.8379 0.54297,-2.90039 0,-1.35999 -0.33986,-2.48642 -1.01953,-3.37891 -0.67968,-0.89249 -1.55129,-1.50961 -2.61328,-1.84961 0.87083,-0.27625 1.61451,-0.79555 2.23046,-1.56054 0.6372,-0.78625 0.95508,-1.91267 0.95508,-3.37891 0,-0.97749 -0.17994,-1.83829 -0.54101,-2.58203 -0.33984,-0.765 -0.83961,-1.39212 -1.49805,-1.88086 -0.65844,-0.51 -1.44411,-0.89344 -2.35742,-1.14844 -0.91332,-0.255 -1.93288,-0.38086 -3.0586,-0.38086 z m -231.14454,4.04688 h 9.39844 c 1.04076,0 1.99635,0.19172 2.86719,0.57422 0.89208,0.36124 1.65577,0.87055 2.29297,1.52929 0.65844,0.65875 1.16822,1.45563 1.52929,2.39063 0.36108,0.91374 0.54297,1.91235 0.54297,2.99609 0,1.08374 -0.18189,2.09431 -0.54297,3.0293 -0.36107,0.93499 -0.87085,1.74188 -1.52929,2.42187 -0.6372,0.65875 -1.40089,1.18001 -2.29297,1.5625 -0.87084,0.3825 -1.82643,0.57227 -2.86719,0.57227 h -9.39844 z m -156.00195,5.64258 v 3.41015 h 12.83984 v -3.41015 z m 381.38086,9.40234 c -0.61596,0 -1.12574,0.21367 -1.5293,0.63867 -0.40355,0.40375 -0.60547,0.91305 -0.60547,1.5293 0,0.61624 0.20192,1.1375 0.60547,1.5625 0.40356,0.40374 0.91334,0.60547 1.5293,0.60547 0.61596,0 1.13575,-0.20173 1.56055,-0.60547 0.4248,-0.425 0.63672,-0.94626 0.63672,-1.5625 0,-0.61625 -0.21192,-1.12555 -0.63672,-1.5293 -0.4248,-0.425 -0.94459,-0.63867 -1.56055,-0.63867 z" />
  </g>
</svg>
