<svg xmlns="http://www.w3.org/2000/svg" id="SVGRoot" version="1.1" viewBox="0 0 498 50.000011" height="50.000011" width="498">
  <defs id="defs1821"></defs>
  
    
  
  <metadata id="metadata1824">
    
      
        image/svg+xml
        
        
          
            ruru
          
        
      
    
  </metadata>
  <g transform="translate(124.99023,-331.0078)" id="layer1">
    <path d="m -99.99944,331.00784 c -13.80086,0 -24.99079,11.19519 -24.99079,25.00249 0,13.80741 11.18993,24.99748 24.99079,24.99748 10.59127,0 19.64242,-6.59222 23.28014,-15.8991 -3.57682,4.29662 -8.96184,7.03151 -14.98778,7.03151 -10.76917,0 -19.49934,-8.73012 -19.49934,-19.50435 0,-10.77406 8.73017,-19.50937 19.49934,-19.50937 0.67955,0 1.35335,0.0327 2.01498,0.10031 -3.14243,-1.42533 -6.63239,-2.219 -10.30734,-2.219 z m 8.56492,5.32425 c -8.96161,0 -16.267,7.30261 -16.267,16.26699 0,8.96443 7.30539,16.27537 16.267,16.27537 8.96161,0 16.26199,-7.31094 16.26199,-16.27537 0,-8.96438 -7.30038,-16.26699 -16.26199,-16.26699 z m 108.0816,0.67891 c -1.40129,0 -2.2844,0.72918 -2.64874,2.1872 l -7.86093,28.76827 h 5.254 l 5.84428,-21.49092 8.61843,19.8923 c 0.56052,1.34586 1.47119,2.01999 2.73235,2.01999 0.6446,0 1.17655,-0.16859 1.59694,-0.50499 0.44841,-0.36452 0.82713,-0.87009 1.13541,-1.515 l 8.66024,-19.8923 5.84261,21.49092 h 5.29748 L 43.30002,339.1982 c -0.42039,-1.45802 -1.27595,-2.1872 -2.56513,-2.1872 -1.20511,0 -2.059,0.60362 -2.56346,1.80931 l -9.41774,21.61796 -9.41607,-21.61796 c -0.25223,-0.58883 -0.63095,-1.03768 -1.13541,-1.34613 C 17.72577,337.1658 17.2076,337.011 16.64708,337.011 Z m 227.4956,0.37957 v 30.5759 h 25.89711 v -5.34097 h -20.55783 v -25.23493 z m -335.5772,2.60695 c 6.9778,0 12.59656,5.61916 12.59656,12.60156 0,6.98246 -5.61876,12.60327 -12.59656,12.60327 -6.97779,0 -12.59488,-5.62081 -12.59488,-12.60327 0,-6.9824 5.61709,-12.60156 12.59488,-12.60156 z m 159.9494,4.47644 c -0.44605,0 -0.82851,0.11747 -1.14712,0.35116 -0.3186,0.23363 -0.59408,0.55272 -0.82773,0.95649 l -13.31727,22.18486 h 4.61857 l 10.51469,-17.78702 5.162044,8.67027 H 66.41294 l -1.91298,3.28415 h 10.961181 l 3.473128,5.8326 h 4.874389 L 70.45796,345.78161 c -0.23363,-0.40377 -0.50913,-0.72276 -0.82774,-0.95649 -0.29737,-0.23363 -0.66929,-0.35116 -1.11534,-0.35116 z m 147.84109,0 c -0.44603,0 -0.82848,0.11747 -1.14711,0.35116 -0.31874,0.23363 -0.59408,0.55272 -0.82771,0.95649 l -13.3173,22.18486 h 4.6186 l 10.51467,-17.78702 5.16204,8.67027 h -7.10511 l -1.9113,3.28415 h 10.95948 l 3.47313,5.8326 h 4.87442 l -13.34904,-22.18486 c -0.23363,-0.40377 -0.51079,-0.72276 -0.82939,-0.95649 -0.29738,-0.23363 -0.66931,-0.35116 -1.11538,-0.35116 z m -235.05885,0.0324 c -0.63722,0 -1.14772,0.22425 -1.53006,0.67057 -0.36108,0.425 -0.54178,1.00869 -0.54178,1.75246 v 21.03773 h 3.85606 v -16.95763 l 16.28038,16.38407 c 0.57349,0.57375 1.18931,0.86117 1.84776,0.86117 0.59474,0 1.07197,-0.2139 1.43306,-0.63877 0.38233,-0.42503 0.57356,-1.0192 0.57356,-1.78422 v -21.23005 h -3.85438 v 16.95927 l -16.34393,-16.22518 c -0.29737,-0.29737 -0.58504,-0.50961 -0.86117,-0.63711 -0.27611,-0.12749 -0.56214,-0.19221 -0.8595,-0.19221 z m 106.971251,0 c -0.637208,0 -1.146017,0.22425 -1.528368,0.67057 -0.361091,0.425 -0.541782,1.00869 -0.541782,1.75246 v 21.03773 h 3.854378 v -16.95763 l 16.282071,16.38407 c 0.57349,0.57375 1.18928,0.86117 1.84775,0.86117 0.59472,0 1.07198,-0.2139 1.43307,-0.63877 0.38232,-0.42503 0.57356,-1.0192 0.57356,-1.78422 v -21.23005 h -3.85438 v 16.95927 L 89.989047,345.33578 c -0.297377,-0.29737 -0.583364,-0.50961 -0.859481,-0.63711 -0.276019,-0.12749 -0.563819,-0.19221 -0.861195,-0.19221 z m 271.743249,0 c -1.69925,0 -3.28172,0.28735 -4.74731,0.8612 -1.4656,0.57375 -2.73937,1.38172 -3.82264,2.42298 -1.06201,1.02001 -1.90065,2.24166 -2.51663,3.66544 -0.61596,1.42378 -0.92472,2.98541 -0.92472,4.68544 0,1.70003 0.3087,3.28274 0.92472,4.74901 0.61598,1.46627 1.45462,2.75269 2.51663,3.85774 1.08327,1.08376 2.35704,1.94434 3.82264,2.58184 1.46559,0.61627 3.04806,0.92472 4.74731,0.92472 1.678,0 3.24995,-0.30838 4.71557,-0.92472 1.4656,-0.6375 2.74102,-1.49808 3.82429,-2.58184 1.08324,-1.10505 1.93243,-2.39147 2.54841,-3.85774 0.61595,-1.46627 0.92471,-3.04898 0.92471,-4.74901 0,-1.70003 -0.30869,-3.26166 -0.92471,-4.68544 -0.61598,-1.42378 -1.46517,-2.64543 -2.54841,-3.66544 -1.08327,-1.04126 -2.35869,-1.84923 -3.82429,-2.42298 -1.46562,-0.57379 -3.03757,-0.8612 -4.71557,-0.8612 z m -432.49695,0.28767 v 23.17312 h 4.01492 v -19.12482 h 12.26713 c 1.42312,0 2.5267,0.39264 3.3126,1.17889 0.80714,0.78628 1.21066,1.84842 1.21066,3.18721 0,1.31751 -0.40352,2.38131 -1.21066,3.18885 -0.7859,0.80751 -1.88948,1.21063 -3.3126,1.21063 h -9.30403 v 3.92127 h 9.30403 c 1.33816,0 2.52765,-0.20321 3.56844,-0.60698 1.06203,-0.425 1.95332,-1.00869 2.6755,-1.75246 0.72217,-0.74376 1.2748,-1.62538 1.65713,-2.64539 0.38233,-1.04127 0.57356,-2.18926 0.57356,-3.44303 0,-1.27503 -0.19124,-2.42299 -0.57356,-3.44303 -0.38233,-1.02002 -0.93496,-1.88056 -1.65713,-2.58184 -0.72218,-0.72251 -1.61347,-1.27465 -2.6755,-1.65713 -1.04079,-0.40377 -2.23028,-0.60533 -3.56844,-0.60533 z m 27.62448,0 v 23.17312 h 20.70832 v -4.04837 h -16.69508 v -15.07645 h 16.66331 v -4.04834 z m 158.96948,0 v 23.17312 h 13.4126 c 1.6355,0 3.14429,-0.29802 4.52491,-0.89294 1.38065,-0.61627 2.57016,-1.44362 3.56846,-2.48489 0.9983,-1.0625 1.77374,-2.31737 2.32601,-3.76242 0.57349,-1.445 0.85951,-3.00667 0.85951,-4.68544 0,-1.67877 -0.28605,-3.20886 -0.85951,-4.59015 -0.55227,-1.40252 -1.32771,-2.60309 -2.32601,-3.60188 -0.9983,-0.99875 -2.18781,-1.77517 -3.56846,-2.32766 -1.38062,-0.55253 -2.88941,-0.82774 -4.52491,-0.82774 z m 28.00574,0 v 23.17312 h 4.01326 v -19.12482 h 12.6166 c 1.40188,0 2.48609,0.37161 3.25073,1.11537 0.78589,0.72251 1.17889,1.83891 1.17889,3.3477 0,1.50879 -0.37193,2.66562 -1.11534,3.47313 -0.74341,0.78625 -1.84869,1.18055 -3.31428,1.18055 h -9.65351 v 3.5701 h 8.66693 l 5.86269,6.43793 h 5.7339 l -6.97635,-7.04491 c 1.50808,-0.57376 2.67484,-1.50799 3.50322,-2.80425 0.84964,-1.31755 1.27587,-2.94399 1.27587,-4.87778 0,-1.29626 -0.19124,-2.4636 -0.57356,-3.50487 -0.38231,-1.04128 -0.93494,-1.92457 -1.65712,-2.64708 -0.72218,-0.74376 -1.6046,-1.30642 -2.64539,-1.6889 -1.04079,-0.40377 -2.21974,-0.60533 -3.53668,-0.60533 z m 29.56588,0 v 23.17312 h 4.04668 v -23.17312 z m 6.72217,0 13.31895,22.18486 c 0.23363,0.40377 0.50913,0.72272 0.82774,0.95649 0.31873,0.23363 0.70108,0.35115 1.14711,0.35115 0.42481,0 0.79674,-0.11745 1.11534,-0.35115 0.31874,-0.23363 0.59411,-0.55272 0.82774,-0.95649 l 13.35073,-22.1849 h -4.65202 l -10.48294,17.85057 -10.51299,-17.85057 z m 94.4065,0 11.53304,11.12503 -12.42433,12.04809 h 5.25567 l 9.62342,-9.46626 9.71707,9.46626 h 5.67039 l -12.55309,-12.04809 11.53472,-11.12503 h -5.25735 l -8.69871,8.57493 -8.82578,-8.57493 z m 41.64238,0 v 13.09988 h 17.36396 c 1.08327,0 1.91136,0.25596 2.48486,0.76587 0.57349,0.48875 0.86119,1.2319 0.86119,2.23068 0,0.91378 -0.28767,1.64809 -0.86119,2.20059 -0.5735,0.55252 -1.40159,0.82773 -2.48486,0.82773 H 314.4513 v 4.04837 h 17.36396 c 1.2107,0 2.26164,-0.16988 3.15374,-0.51004 0.8921,-0.33999 1.63597,-0.80793 2.23069,-1.40294 0.59475,-0.61627 1.04039,-1.33839 1.33774,-2.16716 0.29738,-0.82877 0.44648,-1.73142 0.44648,-2.70894 0,-2.25253 -0.61581,-3.93159 -1.84777,-5.03661 -1.21071,-1.10502 -2.98442,-1.65712 -5.32088,-1.65712 h -13.19019 v -5.64197 h 19.2435 v -4.04834 z m 45.56032,3.79251 c 1.25319,0 2.36899,0.20159 3.34605,0.60533 0.99831,0.38251 1.83695,0.91524 2.51665,1.59525 0.67969,0.68002 1.19017,1.49682 1.53004,2.45309 0.3611,0.9563 0.54178,1.98685 0.54178,3.09187 0,1.12629 -0.18055,2.16904 -0.54178,3.12531 -0.33987,0.9563 -0.85035,1.78361 -1.53004,2.48489 -0.6797,0.70125 -1.51834,1.25503 -2.51665,1.65881 -0.97706,0.40374 -2.10337,0.6053 -3.37782,0.6053 -1.27442,0 -2.39908,-0.2016 -3.37612,-0.6053 -0.97707,-0.40378 -1.80685,-0.95756 -2.48655,-1.65881 -0.67969,-0.70128 -1.19908,-1.52859 -1.56014,-2.48489 -0.33986,-0.95627 -0.51004,-1.99902 -0.51004,-3.12531 0,-1.10502 0.17022,-2.13557 0.51004,-3.09187 0.36106,-0.95627 0.88045,-1.77307 1.56014,-2.45309 0.6797,-0.68001 1.50948,-1.21274 2.48655,-1.59525 0.9983,-0.40377 2.13347,-0.60533 3.40789,-0.60533 z m -241.88973,0.25596 h 9.39934 c 1.04078,0 1.99692,0.19091 2.86779,0.57355 0.8921,0.36129 1.65702,0.8713 2.29423,1.53005 0.65847,0.6588 1.16728,1.45621 1.52837,2.39125 0.36109,0.91375 0.54181,1.91111 0.54181,2.99487 0,1.08378 -0.18056,2.09331 -0.54181,3.02832 -0.36109,0.93504 -0.8699,1.74297 -1.52837,2.42299 -0.63721,0.65876 -1.40213,1.17932 -2.29423,1.56182 -0.87087,0.38252 -1.82701,0.57356 -2.86779,0.57356 h -9.39934 z m -156.00639,5.64193 v 3.40957 h 12.8407 v -3.40957 z m 381.77461,9.40267 c -0.61598,0 -1.12482,0.21227 -1.5284,0.63711 -0.40355,0.40377 -0.60533,0.91378 -0.60533,1.53005 0,0.61627 0.20192,1.13679 0.60533,1.56183 0.40358,0.40373 0.91242,0.60698 1.5284,0.60698 0.61595,0 1.137,-0.20321 1.5618,-0.60698 0.42484,-0.42504 0.63711,-0.94556 0.63711,-1.56183 0,-0.61627 -0.21227,-1.12628 -0.63711,-1.53005 -0.4248,-0.425 -0.94585,-0.63711 -1.5618,-0.63711 z" style="color:#000000;fill:#2080bb;stroke:none;stroke-width:3.77953" id="path5238"></path>
  </g>
</svg>
