<?xml version="1.0" encoding="UTF-8" standalone="no"?>
<!-- Created with Inkscape (http://www.inkscape.org/) -->

<svg
   xmlns:dc="http://purl.org/dc/elements/1.1/"
   xmlns:cc="http://creativecommons.org/ns#"
   xmlns:rdf="http://www.w3.org/1999/02/22-rdf-syntax-ns#"
   xmlns:svg="http://www.w3.org/2000/svg"
   xmlns="http://www.w3.org/2000/svg"
   xmlns:sodipodi="http://sodipodi.sourceforge.net/DTD/sodipodi-0.dtd"
   xmlns:inkscape="http://www.inkscape.org/namespaces/inkscape"
   width="500"
   height="58.402149"
   viewBox="0 0 132.29167 15.452236"
   version="1.1"
   id="svg8"
   inkscape:version="0.92.4 5da689c313, 2019-01-14"
   sodipodi:docname="omlx.svg">
  <defs
     id="defs2" />
  <sodipodi:namedview
     id="base"
     pagecolor="#ffffff"
     bordercolor="#666666"
     borderopacity="1.0"
     inkscape:pageopacity="0.0"
     inkscape:pageshadow="2"
     inkscape:zoom="1.979899"
     inkscape:cx="236.27198"
     inkscape:cy="64.827349"
     inkscape:document-units="px"
     inkscape:current-layer="layer1"
     showgrid="false"
     units="px"
     fit-margin-top="0"
     fit-margin-left="0"
     fit-margin-right="0"
     fit-margin-bottom="0" />
  <metadata
     id="metadata5">
    <rdf:RDF>
      <cc:Work
         rdf:about="">
        <dc:format>image/svg+xml</dc:format>
        <dc:type
           rdf:resource="http://purl.org/dc/dcmitype/StillImage" />
        <dc:title></dc:title>
        <dc:creator>
          <cc:Agent>
            <dc:title>ruru</dc:title>
          </cc:Agent>
        </dc:creator>
      </cc:Work>
    </rdf:RDF>
  </metadata>
  <g
     inkscape:label="Livello 1"
     inkscape:groupmode="layer"
     id="layer1"
     transform="translate(-22.4329,-130.52388)">
    <g
       aria-label="PENMANDRIVA LX"
       transform="matrix(0.26452152,0,0,0.26464517,-222.35915,-609.35537)"
       style="font-style:normal;font-variant:normal;font-weight:normal;font-stretch:normal;line-height:0%;font-family:'Good Times Rg';-inkscape-font-specification:'Good Times Rg';letter-spacing:0px;word-spacing:0px;fill:#2080bb;fill-opacity:1;stroke:none"
       id="text376-2">
      <path
         inkscape:connector-curvature="0"
         id="path566"
         style="font-size:37.22237778px;line-height:1.25;fill:#2080bb;fill-opacity:1"
         d="m 1417.9054,2838.9006 -11.3529,-11.055 -11.2411,11.055 h -6.1417 l 14.5167,-14.07 -13.4745,-12.9906 h 6.5139 l 10.3106,10.0128 10.1617,-10.0128 h 6.1417 l -13.4745,12.9906 14.6657,14.07 z m -61.1848,0 v -35.705 h 6.2373 v 29.4677 h 24.0162 v 6.2373 z m -20.2984,0 -4.0573,-6.8117 h -12.8045 l 2.2334,-3.8339 h 8.3005 l -6.03,-10.1245 -12.2834,20.7701 h -5.3972 l 15.5589,-25.9067 q 0.4095,-0.7073 0.9678,-1.1167 0.5584,-0.4095 1.34,-0.4095 0.7817,0 1.3028,0.4095 0.5584,0.4094 0.9678,1.1167 l 15.5962,25.9067 z m -56.4851,-27.0606 h 5.7694 l 12.2834,20.8445 12.2462,-20.8445 h 5.4345 l -15.5962,25.9067 q -0.4095,0.7073 -0.9678,1.1167 -0.5583,0.4095 -1.3028,0.4095 -0.7817,0 -1.34,-0.4095 -0.5583,-0.4094 -0.9678,-1.1167 z m -7.8755,27.0606 V 2811.84 h 4.7273 v 27.0606 z m -9.4498,0 -6.8489,-7.5189 h -10.1245 v -4.1689 h 11.2784 q 2.5683,0 3.8711,-1.3772 1.3028,-1.4145 1.3028,-4.0573 0,-2.6427 -1.3772,-3.9083 -1.34,-1.3028 -3.7967,-1.3028 h -14.7401 v 22.3334 h -4.69 V 2811.84 h 19.4301 q 2.3078,0 4.1317,0.7072 1.8239,0.67 3.0894,1.9728 1.2656,1.2655 1.9356,3.0894 0.67,1.8239 0.67,4.0945 0,3.3872 -1.4889,5.695 -1.4517,2.2706 -4.0945,3.2756 l 8.1517,8.2261 z m -57.8401,0 V 2811.84 h 15.6706 q 2.8662,0 5.2856,0.9677 2.4195,0.9678 4.1689,2.7173 1.7495,1.7494 2.7173,4.2061 1.005,2.4195 1.005,5.36 0,2.9406 -1.005,5.4717 -0.9678,2.5311 -2.7173,4.3923 -1.7494,1.8239 -4.1689,2.9033 -2.4194,1.0422 -5.2856,1.0422 z m 15.6706,-4.7272 q 1.8239,0 3.3501,-0.67 1.5633,-0.67 2.68,-1.8239 1.1539,-1.1911 1.7866,-2.8289 0.6328,-1.6378 0.6328,-3.5361 0,-1.8984 -0.6328,-3.4989 -0.6327,-1.6378 -1.7866,-2.7917 -1.1167,-1.1539 -2.68,-1.7867 -1.5262,-0.67 -3.3501,-0.67 h -10.9806 v 17.6062 z m -43.7752,-15.0751 v 19.8023 h -4.5039 v -24.5667 q 0,-1.3028 0.6327,-2.0473 0.6701,-0.7816 1.7867,-0.7816 0.5211,0 1.005,0.2233 0.4839,0.2233 1.005,0.7444 l 19.0951,18.9462 v -19.8023 h 4.5039 v 24.7901 q 0,1.34 -0.67,2.0845 -0.6328,0.7444 -1.675,0.7444 -1.1539,0 -2.1589,-1.005 z m -12.9639,19.8023 -4.0572,-6.8117 h -12.8045 l 2.2333,-3.8339 h 8.3006 l -6.03,-10.1245 -12.2834,20.7701 h -5.3972 l 15.5589,-25.9067 q 0.4095,-0.7073 0.9678,-1.1167 0.5583,-0.4095 1.34,-0.4095 0.7817,0 1.3028,0.4095 0.5583,0.4094 0.9678,1.1167 l 15.5961,25.9067 z m -38.6954,0 -6.8266,-25.0966 -10.1173,23.2303 q -0.5402,1.1296 -1.326,1.7681 -0.7367,0.5894 -1.8663,0.5894 -2.2101,0 -3.1924,-2.3575 l -10.0681,-23.2303 -6.8267,25.0966 h -6.1391 l 9.1841,-33.5932 q 0.6385,-2.5538 3.0941,-2.5538 0.9823,0 1.8172,0.5402 0.884,0.5403 1.326,1.5716 l 11.0013,25.244 11.0013,-25.244 q 0.884,-2.1118 2.9959,-2.1118 2.2592,0 2.9959,2.5538 l 9.135,33.5932 z m -73.3008,-19.8023 v 19.8023 h -4.5039 v -24.5667 q 0,-1.3028 0.6327,-2.0473 0.67,-0.7816 1.7867,-0.7816 0.5211,0 1.005,0.2233 0.4839,0.2233 1.005,0.7444 l 19.0951,18.9462 v -19.8023 h 4.5039 v 24.7901 q 0,1.34 -0.67,2.0845 -0.6328,0.7444 -1.675,0.7444 -1.1539,0 -2.1589,-1.005 z m -32.6726,19.8023 V 2811.84 h 24.1574 v 4.7272 h -19.4673 v 17.6062 h 19.5045 v 4.7272 z m 8.1517,-11.7622 v -3.9828 h 15.0007 v 3.9828 z m -32.27874,4.2433 v -4.5783 h 10.86894 q 2.4939,0 3.8711,-1.4145 1.4145,-1.4144 1.4145,-3.7222 0,-2.345 -1.4145,-3.7223 -1.3772,-1.3772 -3.8711,-1.3772 h -14.33063 v 22.3334 h -4.69002 V 2811.84 h 19.02065 q 2.345,0 4.1689,0.7072 1.8611,0.67 3.1267,1.9356 1.2655,1.2283 1.9355,3.015 0.67,1.7866 0.67,4.02 0,2.1961 -0.67,4.02 -0.67,1.7867 -1.9355,3.0895 -1.2656,1.3027 -3.1267,2.0472 -1.8239,0.7072 -4.1689,0.7072 z m -40.29589,-35.6411 c -16.12333,0 -29.19697,13.0737 -29.19697,29.197 0,16.1234 13.07364,29.1915 29.19697,29.1915 12.37361,0 22.94607,-7.6992 27.19596,-18.5673 -4.17875,5.0174 -10.46816,8.2106 -17.50817,8.2106 -12.58145,0 -22.78128,-10.1942 -22.78128,-22.7757 0,-12.5813 10.19983,-22.7812 22.78128,-22.7812 0.79391,0 1.57926,0.038 2.35223,0.117 -3.67126,-1.6644 -7.74664,-2.5919 -12.04002,-2.5919 z m 10.00257,6.2159 c -10.46972,0 -19.00249,8.5314 -19.00249,18.9994 0,10.4682 8.53277,19.0015 19.00249,19.0015 10.46973,0 19.00249,-8.5333 19.00249,-19.0015 0,-10.468 -8.53276,-18.9994 -19.00249,-18.9994 z m 0,4.2842 c 8.15206,0 14.71634,6.5615 14.71633,14.7152 10e-6,8.1537 -6.56427,14.7173 -14.71633,14.7173 -8.15205,0 -14.71438,-6.5636 -14.71438,-14.7173 0,-8.1537 6.56233,-14.7152 14.71438,-14.7152 z" />
    </g>
  </g>
</svg>
