<?xml version="1.0" encoding="UTF-8" standalone="no"?>
<!-- Created with Inkscape (http://www.inkscape.org/) -->

<svg
   xmlns:dc="http://purl.org/dc/elements/1.1/"
   xmlns:cc="http://creativecommons.org/ns#"
   xmlns:rdf="http://www.w3.org/1999/02/22-rdf-syntax-ns#"
   xmlns:svg="http://www.w3.org/2000/svg"
   xmlns="http://www.w3.org/2000/svg"
   xmlns:sodipodi="http://sodipodi.sourceforge.net/DTD/sodipodi-0.dtd"
   xmlns:inkscape="http://www.inkscape.org/namespaces/inkscape"
   width="482"
   height="50"
   viewBox="0 0 127.52916 13.229167"
   version="1.1"
   id="svg8"
   inkscape:version="0.92.4 5da689c313, 2019-01-14"
   sodipodi:docname="header-tr-omlx41.svg">
  <defs
     id="defs2" />
  <sodipodi:namedview
     id="base"
     pagecolor="#e1f3fa"
     bordercolor="#666666"
     borderopacity="1.0"
     inkscape:pageopacity="0"
     inkscape:pageshadow="2"
     inkscape:zoom="1.4"
     inkscape:cx="338.19332"
     inkscape:cy="-19.001699"
     inkscape:document-units="px"
     inkscape:current-layer="layer1"
     showgrid="true"
     units="px">
    <inkscape:grid
       type="xygrid"
       id="grid9" />
  </sodipodi:namedview>
  <metadata
     id="metadata5">
    <rdf:RDF>
      <cc:Work
         rdf:about="">
        <dc:format>image/svg+xml</dc:format>
        <dc:type
           rdf:resource="http://purl.org/dc/dcmitype/StillImage" />
        <dc:title></dc:title>
        <dc:creator>
          <cc:Agent>
            <dc:title>ruru</dc:title>
          </cc:Agent>
        </dc:creator>
      </cc:Work>
    </rdf:RDF>
  </metadata>
  <g
     inkscape:label="Livello 1"
     inkscape:groupmode="layer"
     id="layer1"
     transform="translate(0,-283.77083)">
    <g
       id="g1909"
       transform="matrix(0.22651752,0,0,0.22651752,-15.79891,-372.6738)"
       style="fill:#2080bb;fill-opacity:1;stroke:none"
       inkscape:export-xdpi="90"
       inkscape:export-ydpi="90">
      <g
         transform="matrix(0.59971948,0,0,0.59999981,60.437593,2133.8865)"
         id="g1899"
         style="fill:#2080bb;fill-opacity:1;stroke:none">
        <path
           style="color:#000000;font-style:normal;font-variant:normal;font-weight:normal;font-stretch:normal;font-size:medium;line-height:normal;font-family:sans-serif;font-variant-ligatures:normal;font-variant-position:normal;font-variant-caps:normal;font-variant-numeric:normal;font-variant-alternates:normal;font-feature-settings:normal;text-indent:0;text-align:start;text-decoration:none;text-decoration-line:none;text-decoration-style:solid;text-decoration-color:#000000;letter-spacing:normal;word-spacing:normal;text-transform:none;writing-mode:lr-tb;direction:ltr;text-orientation:mixed;dominant-baseline:auto;baseline-shift:baseline;text-anchor:start;white-space:normal;shape-padding:0;clip-rule:nonzero;display:inline;overflow:visible;visibility:visible;opacity:1;isolation:auto;mix-blend-mode:normal;color-interpolation:sRGB;color-interpolation-filters:linearRGB;solid-color:#000000;solid-opacity:1;vector-effect:none;fill:#2080bb;fill-opacity:1;fill-rule:nonzero;stroke:none;stroke-width:4.28547001;stroke-linecap:butt;stroke-linejoin:miter;stroke-miterlimit:4;stroke-dasharray:none;stroke-dashoffset:0;stroke-opacity:1;color-rendering:auto;image-rendering:auto;shape-rendering:auto;text-rendering:auto;enable-background:accumulate"
           d="m 861.35547,3308.4062 c -16.11956,0 -29.19141,13.078 -29.19141,29.2051 0,16.1272 13.07185,29.1973 29.19141,29.1973 12.37071,0 22.94056,-7.6997 27.18945,-18.5703 -4.17776,5.0185 -10.46554,8.2109 -17.5039,8.2109 -12.57852,0 -22.77735,-10.1969 -22.77735,-22.7812 0,-12.5844 10.19883,-22.7852 22.77735,-22.7852 0.79372,0 1.57876,0.038 2.35156,0.1172 -3.67041,-1.6648 -7.74474,-2.5937 -12.03711,-2.5938 z m 10,6.2168 c -10.46646,0 -18.99805,8.5345 -18.99805,19.0059 0,10.4714 8.53159,19.0059 18.99805,19.0059 10.46646,0 18.99609,-8.5345 18.99609,-19.0059 0,-10.4714 -8.52963,-19.0059 -18.99609,-19.0059 z m 126.2793,0.7989 c -1.63672,0 -2.66821,0.8517 -3.09375,2.5547 l -9.18164,33.5996 h 6.13867 l 6.82422,-25.1016 10.06643,23.2363 c 0.6547,1.572 1.7183,2.3575 3.1914,2.3575 0.7529,0 1.3742,-0.1969 1.8652,-0.5899 0.5238,-0.4257 0.9661,-1.0143 1.3262,-1.7676 l 10.1152,-23.2363 6.8242,25.1016 h 6.1875 l -9.1328,-33.5996 c -0.491,-1.703 -1.4903,-2.5547 -2.9961,-2.5547 -1.4075,0 -2.4049,0.7031 -2.9941,2.1113 l -11,25.25 -10.9981,-25.25 c -0.2946,-0.6877 -0.7369,-1.212 -1.32613,-1.5723 -0.55648,-0.3602 -1.16172,-0.539 -1.8164,-0.539 z m 265.73433,0.4414 v 35.7129 h 30.2481 v -6.2383 h -24.0117 v -29.4746 z m -392.01363,3.0469 c 8.15096,0 14.71289,6.5639 14.71289,14.7187 0,8.1548 -6.56193,14.7188 -14.71289,14.7188 -8.15096,0 -14.71289,-6.564 -14.71289,-14.7188 0,-8.1548 6.56193,-14.7187 14.71289,-14.7187 z m 186.87303,5.2265 c -0.521,0 -0.9677,0.1371 -1.3398,0.4102 -0.3722,0.273 -0.6939,0.6456 -0.9668,1.1172 l -15.5567,25.9121 h 5.3965 l 12.2813,-20.7735 6.0273,10.125 h -8.2969 l -2.2343,3.836 h 12.8027 l 4.0566,6.8125 h 5.6934 l -15.5938,-25.9121 c -0.2729,-0.4716 -0.5946,-0.8442 -0.9668,-1.1172 -0.3473,-0.2731 -0.7817,-0.4102 -1.3027,-0.4102 z m 172.6797,0 c -0.521,0 -0.9677,0.1371 -1.3398,0.4102 -0.3722,0.273 -0.6959,0.6456 -0.9688,1.1172 l -15.5547,25.9121 h 5.3965 l 12.2793,-20.7735 6.0293,10.125 h -8.2988 l -2.2324,3.836 h 12.8007 l 4.0567,6.8125 h 5.6933 l -15.5918,-25.9121 c -0.2729,-0.4716 -0.5966,-0.8442 -0.9687,-1.1172 -0.3473,-0.2731 -0.7798,-0.4102 -1.3008,-0.4102 z m -274.56445,0.037 c -0.74427,0 -1.34055,0.262 -1.78711,0.7832 -0.42175,0.4964 -0.63281,1.1782 -0.63281,2.0469 v 24.5723 h 4.5039 v -19.8067 l 19.01563,19.1367 c 0.66985,0.6702 1.38912,1.0059 2.1582,1.0059 0.69466,0 1.25403,-0.2477 1.67578,-0.7441 0.44657,-0.4964 0.66993,-1.1924 0.66993,-2.086 v -24.7949 h -4.50391 v 19.8067 l -19.08984,-18.9512 c -0.34733,-0.3475 -0.68335,-0.5952 -1.00586,-0.7442 -0.32252,-0.1489 -0.65658,-0.2246 -1.00391,-0.2246 z m 124.93165,0 c -0.7443,0 -1.3406,0.262 -1.7871,0.7832 -0.4218,0.4964 -0.6328,1.1782 -0.6328,2.0469 v 24.5723 h 4.5039 v -19.8067 l 19.0156,19.1367 c 0.6698,0.6702 1.3891,1.0059 2.1582,1.0059 0.6947,0 1.2521,-0.2477 1.6738,-0.7441 0.4466,-0.4964 0.67,-1.1924 0.67,-2.086 v -24.7949 h -4.502 v 19.8067 l -19.0918,-18.9512 c -0.3473,-0.3475 -0.6814,-0.5952 -1.0039,-0.7442 -0.3225,-0.1489 -0.6566,-0.2246 -1.0039,-0.2246 z m -187.78321,0.336 v 27.0664 h 4.6875 v -22.3379 h 14.32812 c 1.66221,0 2.95121,0.4586 3.86914,1.3769 0.94275,0.9184 1.41407,2.159 1.41407,3.7227 0,1.5389 -0.47132,2.7814 -1.41407,3.7246 -0.91793,0.9432 -2.20693,1.4141 -3.86914,1.4141 h -10.86719 v 4.58 h 10.86719 c 1.56298,0 2.95232,-0.2354 4.16797,-0.707 1.24046,-0.4964 2.28149,-1.1801 3.125,-2.0488 0.84351,-0.8687 1.48898,-1.8985 1.93555,-3.0899 0.44656,-1.2162 0.66992,-2.557 0.66992,-4.0214 0,-1.4893 -0.22336,-2.8301 -0.66992,-4.0215 -0.44657,-1.1914 -1.09204,-2.1966 -1.93555,-3.0157 -0.84351,-0.8439 -1.88454,-1.4887 -3.125,-1.9355 -1.21565,-0.4716 -2.60499,-0.707 -4.16797,-0.707 z m 32.26953,0 v 27.0664 h 24.18945 v -4.7285 h -19.5 v -17.6094 h 19.46289 v -4.7285 z m 185.69528,0 v 27.0664 h 15.666 c 1.9103,0 3.6726,-0.3461 5.2852,-1.041 1.6126,-0.7198 3.0019,-1.6881 4.168,-2.9043 1.166,-1.2411 2.0717,-2.7068 2.7168,-4.3946 0.6698,-1.6878 1.0039,-3.5118 1.0039,-5.4726 0,-1.9609 -0.3341,-3.748 -1.0039,-5.3614 -0.6451,-1.6381 -1.5508,-3.0404 -2.7168,-4.207 -1.1661,-1.1666 -2.5554,-2.0714 -4.168,-2.7168 -1.6126,-0.6453 -3.3749,-0.9687 -5.2852,-0.9687 z m 32.7071,0 v 27.0664 h 4.6894 v -22.3379 h 14.7363 c 1.6374,0 2.9018,0.434 3.795,1.3027 0.9179,0.8439 1.3769,2.1479 1.3769,3.9102 0,1.7622 -0.4344,3.1134 -1.3027,4.0566 -0.8683,0.9184 -2.1573,1.3789 -3.8692,1.3789 h -11.2753 v 4.1699 h 10.121 l 6.8477,7.5196 h 6.6992 l -8.1504,-8.2266 c 1.7615,-0.6702 3.1262,-1.7633 4.0938,-3.2773 0.9923,-1.5389 1.4883,-3.4386 1.4883,-5.6973 0,-1.5141 -0.2234,-2.8775 -0.67,-4.0938 -0.4465,-1.2162 -1.092,-2.2478 -1.9355,-3.0917 -0.8435,-0.8688 -1.8722,-1.5259 -3.0879,-1.9727 -1.2156,-0.4716 -2.5927,-0.707 -4.1309,-0.707 z m 34.5664,0 v 27.0664 h 4.7265 v -27.0664 z m 7.873,0 15.5567,25.9121 c 0.2729,0.4716 0.5946,0.8441 0.9668,1.1172 0.3721,0.273 0.8188,0.4101 1.3398,0.4101 0.4962,0 0.9306,-0.1371 1.3027,-0.4101 0.3722,-0.2731 0.6939,-0.6456 0.9668,-1.1172 l 15.5938,-25.9121 h -5.4336 l -12.2442,20.8496 -12.2793,-20.8496 z m 110.25,0 13.4707,12.9941 -14.5137,14.0723 h 6.1407 l 11.2383,-11.0567 11.3515,11.0567 h 6.6231 l -14.6621,-14.0723 13.4707,-12.9941 h -6.1387 l -10.1602,10.0156 -10.3086,-10.0156 z m 48.1153,0 v 11.1699 c -1e-4,3.0033 0.7684,5.1999 2.3066,6.5898 1.5382,1.39 3.7329,2.084 6.5859,2.084 h 11.2012 v 7.2227 h 4.7266 v -7.2227 h 3.9082 v -4.541 h -3.9082 v -15.3027 h -4.7266 v 15.3027 h -11.2012 c -1.4141,0 -2.4674,-0.2988 -3.1621,-0.8945 -0.6698,-0.6205 -1.0058,-1.7117 -1.0058,-3.2754 v -11.1328 z m 38.2089,0 v 4.7285 h 2.6055 c 1.2405,0 2.1831,0.3603 2.8281,1.0801 0.6451,0.6949 0.9668,1.7124 0.9668,3.0527 v 18.2051 h 4.6895 v -18.2051 c 0,-2.8047 -0.7316,-4.9767 -2.1953,-6.5156 -1.4638,-1.5637 -3.5601,-2.3457 -6.2891,-2.3457 z m -267.0332,4.7285 h 10.9785 c 1.2157,0 2.3325,0.2231 3.3497,0.6699 1.0419,0.422 1.9354,1.0177 2.6796,1.7871 0.7691,0.7695 1.3634,1.7009 1.7852,2.793 0.4218,1.0673 0.6328,2.2341 0.6328,3.5 0,1.2658 -0.211,2.443 -0.6328,3.5351 -0.4218,1.0921 -1.0161,2.0359 -1.7852,2.8301 -0.7442,0.7695 -1.6377,1.3775 -2.6796,1.8242 -1.0172,0.4468 -2.134,0.67 -3.3497,0.67 h -10.9785 z m -182.23239,6.5898 v 3.9844 h 14.99805 v -3.9844 z m 445.57809,10.9824 c -0.7194,0 -1.3137,0.2497 -1.7851,0.7461 -0.4714,0.4716 -0.7071,1.0673 -0.7071,1.7872 0,0.7198 0.2357,1.3278 0.7071,1.8242 0.4714,0.4716 1.0657,0.707 1.7851,0.707 0.7195,0 1.3281,-0.2354 1.8243,-0.707 0.4961,-0.4964 0.7441,-1.1044 0.7441,-1.8242 0,-0.7199 -0.248,-1.3156 -0.7441,-1.7872 -0.4962,-0.4964 -1.1048,-0.7461 -1.8243,-0.7461 z"
           transform="matrix(1.6674463,0,0,1.6666672,-1372.066,-4240.5123)"
           id="circle1893"
           inkscape:connector-curvature="0" />
        <g
           transform="translate(1141.6057,1976.7272)"
           style="fill:#2080bb;fill-opacity:1;stroke:none"
           id="g1897" />
      </g>
    </g>
  </g>
</svg>
