<svg xmlns="http://www.w3.org/2000/svg" width="515" height="55" viewBox="0 0 515 55" version="1.1" id="SVGRoot">
  
  <defs id="defs1821"></defs>
  <metadata id="metadata1824">
    
      
        image/svg+xml
        
        
          
            ruru
          
        
      
    
  
  
    
      
        ruru
      
    
  

</metadata>
  <g id="g1">
    <g aria-label="LX 6.0" transform="scale(0.99976636,1.0002337)" style="font-size:8.22189px;line-height:0%;font-family:'Good Times Rg';-inkscape-font-specification:'Good Times Rg';letter-spacing:0px;word-spacing:0px;fill:#2080bb" id="text11">
      <path d="M 313.9757 0 C 305.69355 0 298.97806 6.7162944 298.97806 14.998448 C 298.97806 23.280642 305.69355 29.992991 313.9757 29.992991 C 320.33173 29.992991 325.76075 26.038803 327.94381 20.456157 C 325.79729 23.033435 322.56774 24.671969 318.95147 24.671969 C 312.4887 24.671969 307.24952 19.436261 307.24952 12.973531 C 307.24952 6.510762 312.4887 1.27314 318.95147 1.27314 C 319.35928 1.27314 319.76173 1.29103 320.15879 1.33172 C 318.27298 0.47675019 316.1811 0 313.9757 0 z M 319.11362 3.1926133 C 313.73601 3.1926133 309.35353 7.5763713 309.35353 12.954004 C 309.35353 18.331637 313.73601 22.713442 319.11362 22.713442 C 324.49124 22.713442 328.8737 18.331637 328.87371 12.954004 C 328.87371 7.5763713 324.49124 3.1926133 319.11362 3.1926133 z M 383.97643 3.6026737 C 383.13549 3.6026737 382.60681 4.0383388 382.38817 4.9129144 L 377.67027 22.1706 L 380.82335 22.1706 L 384.33003 9.2790815 L 389.50116 21.21184 C 389.83753 22.019141 390.38336 22.422494 391.14021 22.422494 C 391.52704 22.422494 391.84714 22.321663 392.09942 22.119831 C 392.36852 21.901192 392.59622 21.598669 392.78122 21.21184 L 397.97775 9.2790815 L 401.48443 22.1706 L 404.66486 22.1706 L 399.97236 4.9129144 C 399.72007 4.0383388 399.20659 3.6026737 398.43293 3.6026737 C 397.70972 3.6026737 397.19624 3.9651565 396.89351 4.6883575 L 391.24375 17.654077 L 385.59009 4.6883575 C 385.43872 4.33516 385.21298 4.0649594 384.91024 3.8799526 C 384.62432 3.6949459 384.31281 3.6026737 383.97643 3.6026737 z M 319.11362 5.3932708 C 323.30156 5.3932708 326.67203 8.7660722 326.67203 12.954004 C 326.67203 17.141935 323.30156 20.512784 319.11362 20.512784 C 314.92571 20.512784 311.55521 17.141935 311.55521 12.954004 C 311.55521 8.7660722 314.92571 5.3932708 319.11362 5.3932708 z M 415.1048 8.0781903 C 414.8371 8.0781903 414.60639 8.1488728 414.41518 8.2890785 C 414.22398 8.4292957 414.05919 8.619017 413.91897 8.8612104 L 405.92687 22.1706 L 408.699 22.1706 L 415.00907 11.501218 L 418.1055 16.703128 L 413.84278 16.703128 L 412.69408 18.671418 L 419.27179 18.671418 L 421.35626 22.1706 L 424.28077 22.1706 L 416.27109 8.8612104 C 416.13087 8.619017 415.96413 8.4292957 415.77292 8.2890785 C 415.59447 8.1488623 415.37247 8.0781903 415.1048 8.0781903 z M 503.8267 8.0781903 C 503.55903 8.0781903 503.33025 8.1488728 503.13904 8.2890785 C 502.94784 8.4292957 502.78108 8.619017 502.64087 8.8612104 L 494.64877 22.1706 L 497.4209 22.1706 L 503.73097 11.501218 L 506.82935 16.703128 L 502.56468 16.703128 L 501.41793 18.671418 L 507.99564 18.671418 L 510.07816 22.1706 L 513.00462 22.1706 L 504.99299 8.8612104 C 504.85277 8.619017 504.68799 8.4292957 504.49678 8.2890785 C 504.31833 8.1488623 504.0944 8.0781903 503.8267 8.0781903 z M 362.76249 8.0977169 C 362.38008 8.0977169 362.07376 8.2303276 361.84431 8.498014 C 361.62762 8.7529544 361.52001 9.1043667 361.52001 9.5505024 L 361.52001 22.1706 L 363.83305 22.1706 L 363.83305 11.999149 L 373.60291 21.824978 C 373.94708 22.169138 374.3174 22.342435 374.71255 22.342435 C 375.06946 22.342435 375.35542 22.214642 375.57212 21.959712 C 375.80153 21.704782 375.91791 21.348542 375.91791 20.889649 L 375.91791 8.156297 L 373.60291 8.156297 L 373.60291 18.327748 L 363.79398 8.5956474 C 363.61553 8.4171891 363.44395 8.2894055 363.27824 8.2129244 C 363.11253 8.1364424 362.94094 8.0977169 362.76249 8.0977169 z M 426.95913 8.0977169 C 426.57673 8.0977169 426.27039 8.2303276 426.04095 8.498014 C 425.82425 8.7529544 425.71665 9.1043667 425.71665 9.5505024 L 425.71665 22.1706 L 428.02969 22.1706 L 428.02969 11.999149 L 437.79955 21.824978 C 438.14372 22.169138 438.51402 22.342435 438.90919 22.342435 C 439.2661 22.342435 439.55206 22.214642 439.76876 21.959712 C 439.9982 21.704782 440.11258 21.348542 440.11259 20.889649 L 440.11259 8.156297 L 437.79955 8.156297 L 437.79955 18.327748 L 427.99062 8.5956474 C 427.81218 8.4171891 427.64058 8.2894055 427.47488 8.2129244 C 427.30917 8.1364424 427.13757 8.0977169 426.95913 8.0977169 z M 330.48737 8.2695518 L 330.48737 22.1706 L 332.89614 22.1706 L 332.89614 10.698672 L 340.25723 10.698672 C 341.11128 10.698672 341.77435 10.933908 342.24598 11.405538 C 342.73037 11.877177 342.97271 12.514147 342.97271 13.3172 C 342.97271 14.107515 342.73037 14.744486 342.24598 15.228863 C 341.77435 15.71325 341.11128 15.955256 340.25723 15.955256 L 334.6739 15.955256 L 334.6739 18.308221 L 340.25723 18.308221 C 341.06029 18.308221 341.77571 18.187209 342.40031 17.945025 C 343.03766 17.690085 343.57276 17.338683 344.00615 16.892537 C 344.43955 16.446401 344.76912 15.916864 344.99857 15.305017 C 345.22801 14.680433 345.34436 13.99311 345.34436 13.241046 C 345.34436 12.476234 345.22801 11.78698 344.99857 11.175123 C 344.76912 10.563276 344.43955 10.047308 344.00615 9.6266565 C 343.57276 9.1932578 343.03766 8.8621946 342.40031 8.6327482 C 341.77571 8.3905548 341.06029 8.2695518 340.25723 8.2695518 L 330.48737 8.2695518 z M 347.06546 8.2695518 L 347.06546 22.1706 L 359.49219 22.1706 L 359.49219 19.74148 L 349.47423 19.74148 L 349.47423 10.698672 L 359.47266 10.698672 L 359.47266 8.2695518 L 347.06546 8.2695518 z M 442.46471 8.2695518 L 442.46471 22.1706 L 450.51541 22.1706 C 451.49691 22.1706 452.40041 21.992485 453.22894 21.635569 C 454.0575 21.265915 454.77294 20.768324 455.37202 20.14373 C 455.97112 19.506379 456.43545 18.753242 456.76688 17.886445 C 457.11103 17.019667 457.28262 16.083559 457.28262 15.076555 C 457.28262 14.06956 457.11103 13.151838 456.76688 12.323292 C 456.43545 11.481999 455.97112 10.760798 455.37202 10.161688 C 454.77294 9.5625879 454.0575 9.0988949 453.22894 8.7674823 C 452.40041 8.4360598 451.49691 8.2695518 450.51541 8.2695518 L 442.46471 8.2695518 z M 459.27137 8.2695518 L 459.27137 22.1706 L 461.68013 22.1706 L 461.68013 10.698672 L 469.25221 10.698672 C 470.0935 10.698672 470.74495 10.920348 471.20384 11.366484 C 471.67547 11.799882 471.91104 12.470752 471.91104 13.37578 C 471.91104 14.280799 471.6871 14.974901 471.24096 15.459278 C 470.79482 15.930908 470.13174 16.166144 469.25221 16.166144 L 463.45985 16.166144 L 463.45985 18.308221 L 468.66028 18.308221 L 472.17868 22.1706 L 475.62089 22.1706 L 471.43241 17.945025 C 472.33741 17.600856 473.03929 17.039383 473.53642 16.261825 C 474.0463 15.471529 474.30027 14.496706 474.30027 13.336727 C 474.30027 12.559169 474.18588 11.858297 473.95644 11.233703 C 473.72698 10.609099 473.39546 10.079581 472.96207 9.6461832 C 472.52867 9.2000374 471.9984 8.8621946 471.3738 8.6327482 C 470.74921 8.3905548 470.04251 8.2695518 469.25221 8.2695518 L 459.27137 8.2695518 z M 477.01575 8.2695518 L 477.01575 22.1706 L 479.44405 22.1706 L 479.44405 8.2695518 L 477.01575 8.2695518 z M 481.04989 8.2695518 L 489.04199 21.576989 C 489.18221 21.819173 489.34895 22.010856 489.54016 22.151073 C 489.73136 22.291291 489.96013 22.361962 490.22782 22.361962 C 490.48275 22.361962 490.70474 22.291284 490.89594 22.151073 C 491.08715 22.010856 491.25389 21.819173 491.39411 21.576989 L 499.40574 8.2695518 L 496.61408 8.2695518 L 490.32354 18.977987 L 484.01348 8.2695518 L 481.04989 8.2695518 z M 444.87543 10.698672 L 450.51541 10.698672 C 451.14 10.698672 451.7139 10.812895 452.23652 11.042341 C 452.7719 11.259041 453.22943 11.564948 453.61184 11.960096 C 454.00699 12.355254 454.31332 12.832495 454.53002 13.393354 C 454.74671 13.941476 454.85627 14.541674 454.85627 15.191762 C 454.85627 15.84186 454.74671 16.446885 454.53002 17.007744 C 454.31332 17.568593 454.00699 18.052635 453.61184 18.46053 C 453.22943 18.855687 452.7719 19.168373 452.23652 19.39781 C 451.7139 19.627256 451.14 19.74148 450.51541 19.74148 L 444.87543 19.74148 L 444.87543 10.698672 z M 351.25199 14.082646 L 351.25199 16.129043 L 358.95691 16.129043 L 358.95691 14.082646 L 351.25199 14.082646 z M 410.64477 30.293702 L 410.64477 54.756735 L 431.37422 54.756735 L 431.37422 50.484296 L 414.91921 50.484296 L 414.91921 30.293702 L 410.64477 30.293702 z M 502.62915 35.987683 C 501.26899 35.987683 500.00063 36.215965 498.82748 36.675023 C 497.65434 37.13408 496.63529 37.780918 495.76818 38.614023 C 494.91807 39.430125 494.24709 40.407788 493.75403 41.546931 C 493.26097 42.686074 493.01363 43.935884 493.01363 45.296055 C 493.01363 46.656226 493.26097 47.922801 493.75403 49.095948 C 494.24709 50.269095 494.91807 51.297053 495.76818 52.181165 C 496.63529 53.048273 497.65434 53.737024 498.82748 54.247088 C 500.00063 54.74015 501.26899 54.98715 502.62915 54.98715 C 503.97233 54.98715 505.23033 54.74015 506.40347 54.247088 C 507.57662 53.737024 508.59567 53.048273 509.46278 52.181165 C 510.32989 51.297053 511.01121 50.269095 511.50427 49.095948 C 511.99733 47.922801 512.24273 46.656226 512.24273 45.296055 C 512.24273 43.935884 511.99733 42.686074 511.50427 41.546931 C 511.01121 40.407788 510.32989 39.430125 509.46278 38.614023 C 508.59567 37.780918 507.57662 37.13408 506.40347 36.675023 C 505.23033 36.215965 503.97233 35.987683 502.62915 35.987683 z M 433.59154 36.216146 L 442.82416 45.116409 L 432.87653 54.756735 L 437.08454 54.756735 L 444.78751 47.182333 L 452.56472 54.756735 L 457.10484 54.756735 L 447.05758 45.116409 L 456.28825 36.216146 L 452.08023 36.216146 L 445.11962 43.077823 L 438.05352 36.216146 L 433.59154 36.216146 z M 474.80429 36.216146 C 473.49513 36.216146 472.32303 36.396084 471.28589 36.75313 C 470.24877 37.110174 469.36402 37.660899 468.63293 38.408993 C 467.90184 39.140084 467.33999 40.075834 466.94894 41.214977 C 466.5749 42.35412 466.38826 43.714856 466.38826 45.296055 C 466.38826 46.877253 466.5749 48.263137 466.94894 49.453287 C 467.33999 50.643436 467.90184 51.629481 468.63293 52.41158 C 469.36402 53.193678 470.24877 53.779885 471.28589 54.170934 C 472.32303 54.561983 473.49513 54.756735 474.80429 54.756735 L 480.56736 54.756735 C 482.31858 54.756735 483.69606 54.27307 484.69918 53.303949 C 485.70231 52.317825 486.20344 50.923559 486.20344 49.121333 C 486.20344 47.336109 485.70231 46.027621 484.69918 45.194516 C 483.71306 44.361411 482.33558 43.944808 480.56736 43.944808 L 469.70349 43.944808 C 469.90751 42.36361 470.43579 41.224725 471.28589 40.527638 C 472.15301 39.813549 473.32511 39.455623 474.80429 39.455623 L 485.43959 39.455623 L 485.43959 36.216146 L 474.80429 36.216146 z M 502.62915 39.250593 C 503.63228 39.250593 504.52346 39.413767 505.30556 39.736807 C 506.10466 40.042846 506.77759 40.467832 507.32166 41.0119 C 507.86573 41.555968 508.27256 42.209236 508.5446 42.974332 C 508.83363 43.739429 508.97829 44.564252 508.97829 45.448363 C 508.97829 46.349476 508.83363 47.182683 508.5446 47.947779 C 508.27256 48.712875 507.86573 49.376478 507.32166 49.937548 C 506.77759 50.498619 506.10466 50.94037 505.30556 51.26341 C 504.52346 51.58645 503.62388 51.747672 502.60376 51.747672 C 501.58363 51.747672 500.6821 51.58645 499.9 51.26341 C 499.1179 50.94037 498.45532 50.498619 497.91125 49.937548 C 497.36719 49.376478 496.95 48.712875 496.66096 47.947779 C 496.38892 47.182683 496.25266 46.349476 496.25266 45.448363 C 496.25266 44.564252 496.38892 43.739429 496.66096 42.974332 C 496.95 42.209236 497.36719 41.555968 497.91125 41.0119 C 498.45532 40.467832 499.1179 40.042846 499.9 39.736807 C 500.6991 39.413767 501.60903 39.250593 502.62915 39.250593 z M 469.67809 46.698071 L 480.2626 46.698071 C 482.14984 46.698071 483.09334 47.464217 483.09334 48.994409 C 483.09334 49.810511 482.846 50.438631 482.35293 50.880687 C 481.87687 51.305741 481.18071 51.51921 480.2626 51.51921 L 474.80429 51.51921 C 473.2911 51.51921 472.10025 51.136137 471.23315 50.371041 C 470.36603 49.605945 469.84811 48.381282 469.67809 46.698071 z M 489.72379 51.493825 C 489.23073 51.493825 488.82194 51.663429 488.4989 52.003472 C 488.17586 52.326512 488.01441 52.734733 488.01441 53.227795 C 488.01441 53.720857 488.17586 54.13746 488.4989 54.477503 C 488.82194 54.800544 489.23073 54.961765 489.72379 54.961765 C 490.21685 54.961765 490.63405 54.800544 490.97409 54.477503 C 491.31413 54.13746 491.48397 53.720857 491.48397 53.227795 C 491.48397 52.734733 491.31413 52.326512 490.97409 52.003472 C 490.63405 51.663429 490.21685 51.493825 489.72379 51.493825 z" style="font-size:25.5032px;line-height:1.25" id="path2"></path>
    </g>
  </g>
</svg>
