<svg xmlns="http://www.w3.org/2000/svg" id="SVGRoot" version="1.1" viewBox="0 0 515 50" height="50" width="515">
  <defs id="defs1821"></defs>
  
    
  
  <metadata id="metadata1824">
    
      
        image/svg+xml
        
        
          
            ruru
          
        
      
    
  </metadata>
  <g transform="translate(124.99023,-331.0078)" id="layer1">
    <g transform="translate(0,-167.36524)" id="g6141">
      <path d="m -99.999996,498.37305 c -13.800394,0 -24.990234,11.19705 -24.990234,25.00391 0,13.80693 11.18984,24.99609 24.990234,24.99609 10.59091,0 19.639752,-6.59183 23.277344,-15.89844 -3.576702,4.29649 -8.958647,7.0293 -14.984375,7.0293 -10.768823,0 -19.500003,-8.73014 -19.500003,-19.50391 0,-10.77384 8.73118,-19.50586 19.500003,-19.50586 0.679528,0 1.350101,0.0318 2.011719,0.0996 -3.142334,-1.42527 -6.629864,-2.2207 -10.304688,-2.2207 z m 8.5625,5.32227 c -8.960634,0 -16.263674,7.30663 -16.263674,16.27148 0,8.96485 7.30304,16.27149 16.263674,16.27149 8.960622,0 16.263672,-7.30664 16.263672,-16.27149 0,-8.96485 -7.30305,-16.27148 -16.263672,-16.27148 z m 108.080079,0.68359 c -1.401248,0 -2.284118,0.72757 -2.648438,2.18555 l -7.8613281,28.76758 h 5.2558591 l 5.841797,-21.49024 8.617188,19.89258 c 0.560488,1.34583 1.471304,2.01758 2.732422,2.01758 0.644568,0 1.177286,-0.16745 1.597656,-0.50391 0.448398,-0.36449 0.826497,-0.86879 1.134765,-1.51367 l 8.660157,-19.89258 5.84375,21.49024 h 5.296875 l -7.81836,-28.76758 c -0.420368,-1.45798 -1.275315,-2.18555 -2.564453,-2.18555 -1.205068,0 -2.060015,0.60296 -2.564453,1.80859 l -9.416016,21.61719 -9.417968,-21.61719 c -0.25222,-0.5888 -0.630328,-1.03728 -1.134766,-1.3457 -0.47643,-0.30842 -0.994189,-0.46289 -1.554687,-0.46289 z m -108.080079,2.98633 c 6.978266,0 12.595704,5.62002 12.595704,12.60156 0,6.98154 -5.617438,12.60156 -12.595704,12.60156 -6.978266,0 -12.595704,-5.62002 -12.595704,-12.60156 0,-6.98154 5.617438,-12.60156 12.595704,-12.60156 z m 159.947266,4.47461 c -0.44604,0 -0.829839,0.11781 -1.148437,0.35156 -0.3186,0.23375 -0.594487,0.55133 -0.828125,0.95508 l -13.316407,22.18555 h 4.619141 l 10.513672,-17.78516 5.162109,8.66992 H 66.406254 L 64.494145,529.5 h 10.960938 l 3.472656,5.83204 h 4.873047 L 70.453129,513.14649 c -0.233628,-0.40375 -0.509525,-0.72133 -0.828125,-0.95508 -0.297358,-0.23375 -0.669204,-0.35156 -1.115234,-0.35156 z m 147.83594,0 c -0.44603,0 -0.82789,0.11781 -1.14649,0.35156 -0.3186,0.23375 -0.59448,0.55133 -0.82812,0.95508 l -13.31836,22.18555 h 4.61914 l 10.51367,-17.78516 5.16211,8.66992 h -7.10547 l -1.91015,3.2832 h 10.95898 l 3.47266,5.83204 h 4.875 l -13.34961,-22.18555 c -0.23364,-0.40375 -0.50953,-0.72133 -0.82813,-0.95508 -0.29736,-0.23375 -0.66919,-0.35156 -1.11523,-0.35156 z m -235.052737,0.0332 c -0.637198,0 -1.146977,0.22172 -1.529297,0.66797 -0.361078,0.425 -0.541015,1.01017 -0.541015,1.75391 v 21.03711 h 3.855468 V 518.375 l 16.27929725,16.38282 c 0.57347886,0.57374 1.18921757,0.86132 1.84765625,0.86132 0.5947188,0 1.0725144,-0.21172 1.4335938,-0.63671 0.3823192,-0.42499 0.5742187,-1.02016 0.5742187,-1.78516 v -21.22852 h -3.85546875 v 16.95704 L -16.986324,512.70118 c -0.297358,-0.29749 -0.585208,-0.50922 -0.861328,-0.63672 -0.27611,-0.1275 -0.562015,-0.19141 -0.859375,-0.19141 z m 106.96875,0 c -0.637198,0 -1.146977,0.22172 -1.529297,0.66797 -0.361078,0.425 -0.541015,1.01017 -0.541015,1.75391 v 21.03711 h 3.855468 V 518.375 l 16.279301,16.38282 c 0.57348,0.57374 1.18921,0.86132 1.84765,0.86132 0.59472,0 1.07252,-0.21172 1.4336,-0.63671 0.38232,-0.42499 0.57421,-1.02016 0.57422,-1.78516 v -21.22852 h -3.85547 v 16.95704 L 89.982426,512.70118 c -0.297358,-0.29749 -0.583255,-0.50922 -0.859375,-0.63672 -0.276118,-0.1275 -0.563968,-0.19141 -0.861328,-0.19141 z m -160.748047,0.28711 v 23.17188 h 4.013672 v -19.125 h 12.267578 c 1.423078,0 2.526632,0.39344 3.3125,1.17968 0.807118,0.78625 1.210938,1.84876 1.210938,3.1875 0,1.31749 -0.40382,2.38001 -1.210938,3.1875 -0.785868,0.8075 -1.889422,1.21094 -3.3125,1.21094 h -9.304687 v 3.91992 h 9.304687 c 1.338118,0 2.527612,-0.20173 3.56836,-0.60547 1.061998,-0.425 1.953633,-1.0082 2.675781,-1.75195 0.722158,-0.74374 1.27393,-1.62649 1.65625,-2.64648 0.382318,-1.04123 0.574219,-2.18767 0.574219,-3.44141 0,-1.27499 -0.191901,-2.42337 -0.574219,-3.44336 -0.38232,-1.01999 -0.934092,-1.88078 -1.65625,-2.58203 -0.722148,-0.72249 -1.613783,-1.27375 -2.675781,-1.65625 -1.040748,-0.40375 -2.230242,-0.60547 -3.56836,-0.60547 z m 27.623047,0 v 23.17188 h 20.708985 v -4.04883 h -16.695313 v -15.07617 h 16.662109 v -4.04688 z m 158.962887,0 v 23.17188 h 13.41407 c 1.63545,0 3.14286,-0.29759 4.52343,-0.89258 1.38059,-0.61625 2.57008,-1.44509 3.56836,-2.48633 0.99827,-1.06249 1.77394,-2.31673 2.32618,-3.76172 0.57346,-1.44499 0.85937,-3.00681 0.85937,-4.68555 0,-1.67872 -0.28591,-3.2086 -0.85937,-4.58984 -0.55224,-1.40249 -1.32791,-2.60282 -2.32618,-3.60156 -0.99828,-0.99874 -2.18777,-1.77368 -3.56836,-2.32617 -1.38057,-0.5525 -2.88798,-0.82813 -4.52343,-0.82813 z m 28.00586,0 v 23.17188 h 4.01368 v -19.125 h 12.61718 c 1.40183,0 2.48536,0.37149 3.25,1.11523 0.78587,0.7225 1.17774,1.83893 1.17774,3.34766 0,1.50873 -0.37185,2.66712 -1.11524,3.47461 -0.7434,0.78623 -1.84695,1.17968 -3.3125,1.17968 h -9.65429 v 3.56836 h 8.66601 l 5.86328,6.43946 h 5.73438 l -6.97852,-7.04493 c 1.50803,-0.57375 2.6775,-1.50845 3.50586,-2.80468 0.84959,-1.31748 1.27344,-2.94322 1.27344,-4.87696 0,-1.29624 -0.18995,-2.46462 -0.57227,-3.50586 -0.38232,-1.04125 -0.93605,-1.92203 -1.6582,-2.64453 -0.72216,-0.74374 -1.60377,-1.30695 -2.64453,-1.68945 -1.04075,-0.40375 -2.21829,-0.60547 -3.53516,-0.60547 z m 29.56641,0 v 23.17188 h 4.04492 v -23.17188 z m 6.7207,0 13.31836,22.18359 c 0.23364,0.40374 0.50953,0.72329 0.82813,0.95704 0.3186,0.23375 0.70044,0.3496 1.14648,0.3496 0.42479,0 0.79664,-0.11585 1.11524,-0.3496 0.3186,-0.23375 0.59448,-0.5533 0.82812,-0.95704 l 13.34961,-22.18359 h -4.65039 l -10.48242,17.84961 -10.51367,-17.84961 z m -60.27734,4.04688 h 9.39844 c 1.04076,0 1.99634,0.19171 2.86718,0.57421 0.89208,0.36124 1.65577,0.87056 2.29297,1.5293 0.65844,0.65875 1.16823,1.45564 1.5293,2.39063 0.36108,0.91374 0.54297,1.91235 0.54297,2.99609 0,1.08374 -0.18189,2.09431 -0.54297,3.0293 -0.36107,0.93498 -0.87086,1.74188 -1.5293,2.42187 -0.6372,0.65875 -1.40089,1.18001 -2.29297,1.5625 -0.87084,0.3825 -1.82642,0.57227 -2.86718,0.57227 h -9.39844 z m -156.001954,5.64257 v 3.41016 h 12.839843 v -3.41016 z" style="font-style:normal;font-variant:normal;font-weight:normal;font-stretch:normal;font-size:10.2736px;line-height:0%;font-family:'Good Times Rg';-inkscape-font-specification:'Good Times Rg';letter-spacing:0px;word-spacing:0px;fill:#2080bb;fill-opacity:1;stroke:none;stroke-width:0.856133" id="path6082"></path>
      <text id="text6086" y="535.36774" x="241.49377" style="font-style:normal;font-variant:normal;font-weight:normal;font-stretch:normal;font-size:40px;font-family:'Good Times';-inkscape-font-specification:'Good Times, Normal';font-variant-ligatures:normal;font-variant-caps:normal;font-variant-numeric:normal;font-variant-east-asian:normal;fill:#2080bb;fill-opacity:1;stroke:none;stroke-width:3;stroke-dasharray:none;stroke-opacity:1" xml:space="preserve"><tspan y="535.36774" x="241.49377" id="tspan6084">rome</tspan></text>
    </g>
  </g>
</svg>
