<?xml version="1.0" encoding="UTF-8" standalone="no"?>
<!-- Created with Inkscape (http://www.inkscape.org/) -->

<svg
   xmlns:dc="http://purl.org/dc/elements/1.1/"
   xmlns:cc="http://creativecommons.org/ns#"
   xmlns:rdf="http://www.w3.org/1999/02/22-rdf-syntax-ns#"
   xmlns:svg="http://www.w3.org/2000/svg"
   xmlns="http://www.w3.org/2000/svg"
   xmlns:sodipodi="http://sodipodi.sourceforge.net/DTD/sodipodi-0.dtd"
   xmlns:inkscape="http://www.inkscape.org/namespaces/inkscape"
   width="48"
   height="48"
   viewBox="0 0 12.7 12.7"
   version="1.1"
   id="svg1100"
   inkscape:version="0.92.4 5da689c313, 2019-01-14"
   sodipodi:docname="om-donate.svg"
   inkscape:export-filename="/home/ruru/om-donate48.png"
   inkscape:export-xdpi="96"
   inkscape:export-ydpi="96">
  <defs
     id="defs1094" />
  <sodipodi:namedview
     id="base"
     pagecolor="#ffffff"
     bordercolor="#666666"
     borderopacity="1.0"
     inkscape:pageopacity="0.0"
     inkscape:pageshadow="2"
     inkscape:zoom="3.959798"
     inkscape:cx="18.289486"
     inkscape:cy="35.425979"
     inkscape:document-units="mm"
     inkscape:current-layer="layer1"
     showgrid="false"
     units="px"
     fit-margin-top="0"
     fit-margin-left="0"
     fit-margin-right="0"
     fit-margin-bottom="0" />
  <metadata
     id="metadata1097">
    <rdf:RDF>
      <cc:Work
         rdf:about="">
        <dc:format>image/svg+xml</dc:format>
        <dc:type
           rdf:resource="http://purl.org/dc/dcmitype/StillImage" />
        <dc:title></dc:title>
        <cc:license
           rdf:resource="openmandriva.org" />
      </cc:Work>
    </rdf:RDF>
  </metadata>
  <g
     inkscape:label="Livello 1"
     inkscape:groupmode="layer"
     id="layer1"
     transform="translate(-119.13809,-75.959524)">
    <g
       id="g1066"
       transform="matrix(0.09921875,0,0,0.09921875,80.414435,12.196804)">
      <rect
         style="fill:none;fill-opacity:1;stroke:none"
         id="rect1032"
         width="128"
         height="128"
         x="390.28571"
         y="642.64789" />
      <g
         id="g1064">
        <g
           id="g1036">
          <rect
             style="fill:none;stroke-width:0.921875"
             id="rect1034"
             width="118"
             height="118"
             x="395.28571"
             y="647.64789" />
        </g>
        <g
           id="g1062">
          <g
             id="g1046">
            <circle
               style="fill:#005c9d;fill-opacity:1;stroke:none"
               id="circle1038"
               cx="454.28571"
               cy="706.64789"
               r="61.5" />
            <g
               id="g1044">
              <circle
                 style="fill:#f9f9f9;fill-opacity:1;stroke:none;stroke-width:0.97560978"
                 id="circle1040"
                 cx="454.28571"
                 cy="706.64789"
                 r="60" />
              <circle
                 style="fill:#ffffff;fill-opacity:1;stroke-width:0.921875"
                 id="circle1042"
                 cx="454.28571"
                 cy="706.64789"
                 r="56.695312" />
            </g>
          </g>
          <g
             id="g1060">
            <g
               inkscape:label="Livello 1"
               id="g1056"
               transform="matrix(0.64819335,0,0,0.64819335,355.04936,275.64003)"
               style="display:inline;fill:#005c9d;fill-opacity:1">
              <g
                 style="fill:#005c9d;fill-opacity:1"
                 id="g1054"
                 transform="matrix(0.84937381,0,0,0.84937381,44.080043,556.21737)">
                <path
                   style="fill:#005c9d;fill-opacity:1;stroke:none"
                   d="m 154.72852,68.25 a 48.970612,48.9935 0 0 0 -48.97071,48.99219 48.970612,48.9935 0 0 0 48.97071,48.99414 48.970612,48.9935 0 0 0 48.9707,-48.99414 A 48.970612,48.9935 0 0 0 154.72852,68.25 Z m 0,10.992188 a 38,38 0 0 1 38,38.000002 38,38 0 0 1 -38,38 38,38 0 0 1 -38,-38 38,38 0 0 1 38,-38.000002 z"
                   id="path1048"
                   inkscape:connector-curvature="0" />
                <g
                   id="g1052"
                   style="fill:#005c9d;fill-opacity:1"
                   transform="matrix(1.545991,0,0,1.5467136,1793.9126,1140.4135)">
                  <path
                     style="fill:#005c9d;fill-opacity:1;stroke:none"
                     d="m -1077.409,-703.2263 c -26.8785,0 -48.673,21.79451 -48.673,48.67308 0,26.87861 21.7945,48.66381 48.673,48.66381 20.6275,0 38.2524,-12.835 45.3372,-30.95267 -6.9662,8.36417 -17.451,13.68758 -29.1871,13.68758 -20.974,0 -37.9777,-16.99445 -37.9777,-37.96836 0,-20.97393 17.0037,-37.97765 37.9777,-37.97765 1.3235,0 2.6327,0.063 3.9213,0.19515 -6.1202,-2.7747 -12.9141,-4.32094 -20.0714,-4.32094 z"
                     id="path1050"
                     inkscape:connector-curvature="0" />
                </g>
              </g>
            </g>
            <path
               inkscape:connector-curvature="0"
               id="path1058"
               d="m 460.71815,685.70048 c 4.13578,0 6.45431,2.32187 8.06828,4.13758 1.61396,-1.81571 3.93249,-4.13758 8.06828,-4.13758 5.04363,0 9.07832,4.03471 9.07832,9.07832 0,6.05237 -3.52556,9.78595 -16.53814,20.37758 l -0.60846,0.50503 -0.60238,-0.50503 c -13.01258,-10.59163 -16.54423,-14.32521 -16.54423,-20.37758 0,-5.04361 4.0347,-9.07832 9.07833,-9.07832 z"
               style="fill:#d60007;fill-opacity:1;fill-rule:nonzero;stroke:none;stroke-width:0.921875" />
          </g>
        </g>
      </g>
    </g>
  </g>
</svg>
